<?xml version="1.0" encoding="utf-8"?>
<!-- Generator: Adobe Illustrator 28.0.0, SVG Export Plug-In . SVG Version: 6.00 Build 0)  -->
<svg version="1.1" id="Layer_1" xmlns="http://www.w3.org/2000/svg" xmlns:xlink="http://www.w3.org/1999/xlink" x="0px" y="0px"
	 viewBox="0 0 500 500" style="enable-background:new 0 0 500 500;" xml:space="preserve">
<style type="text/css">
	.st0{fill:#5B6265;}
	.st1{fill:#F59751;}
	.st2{fill-opacity:0.1;}
	.st3{fill:#1AAA9D;}
	.st4{fill-opacity:0.2;}
	.st5{fill:#EF5C6F;}
	.st6{fill-opacity:0.15;}
	.st7{clip-path:url(#SVGID_00000155854218641614530490000006389557987389551261_);}
	.st8{fill:#552955;}
	.st9{clip-path:url(#SVGID_00000116221698202361430270000015124758846302592899_);}
	.st10{clip-path:url(#SVGID_00000018928564517166857130000006190473175636082059_);}
	.st11{clip-path:url(#SVGID_00000025404003983529705140000005999097920665672895_);}
</style>
<g>
	<g transform="translate(75.055709, 262.129272)">
		<g>
			<path class="st0" d="M38.4,54.2l4.7-1.8l-0.4-2.2H28.6l-0.4,2.2l4.7,1.8v29.2l-4.7,1.8l0.4,2.2h14.1l0.4-2.2l-4.7-1.8V54.2z"/>
		</g>
	</g>
</g>
<g>
	<g transform="translate(90.611683, 262.129272)">
		<g>
			<path class="st0" d="M40.2,64.5c0,0,0.1-2.5-2.9-2.5c-1.8,0-4.1,0.4-5.3,0.6v1.9h3.2v22.9h5V75.6c0-7.9,3.9-11.1,6.6-11.1
				c2.7,0,4.3,2.2,4.3,5.6v13c0,3.7,2.6,4.8,4.6,4.8c1.4,0,2.8-0.2,3.6-0.6v-1.9c-1.6,0-3.1-0.8-3.1-2.4V71.5c0-5.8-2.4-9.4-8.2-9.4
				c-2.8,0-6.4,2.4-7.7,6.2V64.5z"/>
		</g>
	</g>
</g>
<g>
	<g transform="translate(113.408537, 262.129272)">
		<g>
			<path class="st0" d="M62.7,50.2c0,0,0.1-2.5-2.9-2.5c-1.8,0-4.1,0.4-5.3,0.6v1.9h3.2V62l1.2,5.6c-1.2-3.1-4.1-5.6-8.2-5.6
				c-7.3,0-11.1,6.3-11.1,14.1C39.7,84,43.6,88,51.3,88c2.6,0,5.3-1.4,6.5-4c0.7,3,3,4,4.9,4c1,0,2.1-0.2,2.9-0.6v-1.9
				c-1.6,0-2.9-0.8-2.9-2.4V50.2z M52,85.9c-4.5,0-6.8-3.3-6.8-9.7s1.8-11.7,6.3-11.7c2.4,0,6.2,2.4,6.2,9.3V77
				C57.7,83.1,54.7,85.9,52,85.9z"/>
		</g>
	</g>
</g>
<g>
	<g transform="translate(134.057006, 262.129272)">
		<g>
			<path class="st0" d="M52.3,50.4c-1.6,0-2.9,1.3-2.9,2.9c0,1.6,1.3,2.9,2.9,2.9c1.5,0,2.9-1.3,2.9-2.9
				C55.2,51.7,53.9,50.4,52.3,50.4z M55,64.5c0,0,0.1-2.5-2.9-2.5c-1.8,0-4.1,0.4-5.3,0.6v1.9H50v22.9h5V64.5z"/>
		</g>
	</g>
</g>
<g>
	<g transform="translate(144.719409, 262.129272)">
		<g>
			<path class="st0" d="M60.4,88c2.6,0,5.3-1.4,6.5-4c0.7,3,2.8,4,4.7,4c1,0,2.1-0.2,2.9-0.6v-1.9c-1.6,0-2.9-0.8-2.9-2.4V62.6
				L69.8,62l-3.1,0.8c-1.3-0.7-3-0.8-4.6-0.8c-6.7,0-12.1,4.1-12.1,14.3C49.9,84.8,55.2,88,60.4,88z M66.6,77c0,6-3,8.4-5.7,8.4
				c-2.9,0-5.9-2.1-5.9-9.4c0-9.2,3.9-12,7.3-12c1.6,0,2.7,0.3,4.3,1.2V77z"/>
		</g>
	</g>
</g>
<g>
	<g transform="translate(164.61196, 262.129272)">
		<g>
			<path class="st0" d="M64.9,64.5c0,0,0.1-2.5-2.9-2.5c-1.8,0-4.1,0.4-5.3,0.6v1.9h3.2v22.9h5V75.6c0-7.9,3.9-11.1,6.6-11.1
				c2.7,0,4.3,2.2,4.3,5.6v13c0,3.7,2.6,4.8,4.6,4.8c1.4,0,2.8-0.2,3.6-0.6v-1.9c-1.6,0-3.1-0.8-3.1-2.4V71.5c0-5.8-2.4-9.4-8.2-9.4
				c-2.8,0-6.4,2.4-7.7,6.2V64.5z"/>
		</g>
	</g>
</g>
<g>
	<g transform="translate(187.408814, 262.129272)">
	</g>
</g>
<g>
	<g transform="translate(196.957226, 262.129272)">
		<g>
			<path class="st0" d="M81.3,83.4l-4.6,1.8l0.4,2.2h14l0.4-2.2l-4.6-1.8V70.1l8.8-15.9l4.7-1.8l-0.4-2.3h-11l-0.4,2.3l4.6,1.8
				l-9,16.3v-3.4l-7.2-12.8l4.7-1.8l-0.4-2.3H66.3l-0.4,2.3l4.6,1.8l10.8,19.4V83.4z"/>
		</g>
	</g>
</g>
<g>
	<g transform="translate(222.777757, 262.129272)">
		<g>
			<path class="st0" d="M88.8,62C81,62,76.4,67,76.4,75c0,8,4.1,13,12.5,13c8.4,0,12.5-4.8,12.5-13C101.3,66.8,96.7,62,88.8,62z
				 M88.8,64c4.5,0,7.3,4,7.3,10.8c0,6.7-2.8,11.2-7.3,11.2c-4.5,0-7.3-4.5-7.3-11.2C81.5,68.1,84.4,64,88.8,64z"/>
		</g>
	</g>
</g>
<g>
	<g transform="translate(244.261712, 262.129272)">
		<g>
			<path class="st0" d="M96,85.9c-3.2,0-5.2-2.4-5.2-6.4v-15c0,0,0.1-2.5-2.9-2.5c-1.8,0-3.7,0.4-4.9,0.6v1.9h2.8v14
				c0,6.4,3.3,9.5,9.1,9.5c2.7,0,5.3-1.5,6.8-4c0.7,3,3.1,4,5,4c1,0,2.1-0.2,2.9-0.6v-1.9c-1.6,0-3.1-0.8-3.1-2.4V62.6l-1.9-0.6
				l-3.1,0.6v14.3C101.4,82.9,98.3,85.9,96,85.9z"/>
		</g>
	</g>
</g>
<g>
	<g transform="translate(265.546744, 262.129272)">
		<g>
			<path class="st0" d="M97.5,56.4L95,55.9l-2.2,5.6L89,62.6l0.4,1.9h3.1v16.6c0,3.9,2.1,6.8,7,6.8c3,0,4.6-1.2,6.3-3.1l-1.2-1.4
				c-1.1,1.2-2.3,2-4.2,2c-1.6,0-2.9-1.4-2.9-3.9v-17h6.6l0.4-1.9h-7V56.4z"/>
		</g>
	</g>
</g>
<g>
	<g transform="translate(278.118833, 262.129272)">
		<g>
			<path class="st0" d="M96.4,50.2v37.1h5V73.7c0-7.6,3.7-9.2,6.1-9.2c2.4,0,4.6,1,4.6,4.8v13.8c0,3.7,2.6,4.8,4.6,4.8
				c1.4,0,2.8-0.2,3.6-0.6v-1.9c-1.6,0-3.1-0.8-3.1-2.4V70.7c0-5.6-3.2-8.7-9.1-8.7c-3.1,0-6.3,2.1-7.5,6.4l1-5V50.2
				c0,0,0.1-2.5-2.9-2.5c-1.8,0-4.1,0.4-5.3,0.6v1.9H96.4z"/>
		</g>
	</g>
</g>
<g>
	<g transform="translate(32.860822, 297.409804)">
		<g>
			<path class="st0" d="M28.6,62L16.3,95.2l-4.6,1.8l0.4,2.2h12.1l0.4-2.2l-5.5-1.8l3-8.5H36l3,8.5l-4.6,1.8l0.4,2.2h14.4l0.4-2.2
				l-4.6-1.8L33.2,61.1L28.6,62z M29.9,66.1v2.7l5.4,15.6H23L29.9,66.1z"/>
		</g>
	</g>
</g>
<g>
	<g transform="translate(61.824371, 297.409804)">
		<g>
			<path class="st0" d="M32.2,75.7c1.5,0,2.7,0.3,3.7,0.6l1.6,4.3c1.5,0,2.7-1.2,2.7-2.7c0-3-3.8-4.3-7.7-4.3
				c-5.8,0-9.5,2.8-9.5,7.1c0,4.2,3.2,6,6.7,7.6c3,1.3,6.7,2.6,6.7,5.2c0,2.5-2.4,4-5.8,4c-1.1,0-2.9-0.5-3.9-1.2l-1.3-3.6
				c-1.4,0-2.5,1-2.5,2.4c0,3,2.8,4.4,8.2,4.4c6.2,0,9.7-2.9,9.7-7.4c0-4.7-4-6.5-7.8-8.1c-2.5-1.1-5.7-2.4-5.7-5.2
				C27.1,77.2,29,75.7,32.2,75.7z"/>
		</g>
	</g>
</g>
<g>
	<g transform="translate(77.977117, 297.409804)">
		<g>
			<path class="st0" d="M37.6,75.7c1.5,0,2.7,0.3,3.7,0.6l1.6,4.3c1.5,0,2.7-1.2,2.7-2.7c0-3-3.8-4.3-7.7-4.3
				c-5.8,0-9.5,2.8-9.5,7.1c0,4.2,3.2,6,6.7,7.6c3,1.3,6.7,2.6,6.7,5.2c0,2.5-2.4,4-5.8,4c-1.1,0-2.9-0.5-3.9-1.2l-1.3-3.6
				c-1.4,0-2.5,1-2.5,2.4c0,3,2.8,4.4,8.2,4.4c6.2,0,9.7-2.9,9.7-7.4c0-4.7-4-6.5-7.8-8.1c-2.5-1.1-5.7-2.4-5.7-5.2
				C32.5,77.2,34.4,75.7,37.6,75.7z"/>
		</g>
	</g>
</g>
<g>
	<g transform="translate(94.129863, 297.409804)">
		<g>
			<path class="st0" d="M46,73.8c-7.8,0-12.5,5-12.5,12.9c0,8,4.1,13,12.5,13c8.4,0,12.5-4.8,12.5-13C58.4,78.6,53.8,73.8,46,73.8z
				 M46,75.7c4.5,0,7.3,4,7.3,10.8c0,6.7-2.8,11.2-7.3,11.2s-7.3-4.5-7.3-11.2S41.6,75.7,46,75.7z"/>
		</g>
	</g>
</g>
<g>
	<g transform="translate(115.613818, 297.409804)">
		<g>
			<path class="st0" d="M58.9,80.7c1.5,0,2.7-1.2,2.7-2.7c0-3-3.8-4.3-7.7-4.3c-8.3,0-13.6,4.8-13.6,13c0,7.8,4.1,12.9,13.5,12.9
				c3.4,0,6.3-1.1,8.5-3.1L61,94.8c-2.2,1.4-4.2,2.4-7,2.4c-6.6,0-8.3-5.1-8.3-11.5c0-6.3,2.9-10,8.2-10c1.5,0,2.3,0.3,3.2,0.6
				L58.9,80.7z"/>
		</g>
	</g>
</g>
<g>
	<g transform="translate(133.875173, 297.409804)">
		<g>
			<path class="st0" d="M52.3,62.2c-1.6,0-2.9,1.3-2.9,2.9c0,1.6,1.3,2.9,2.9,2.9c1.5,0,2.9-1.3,2.9-2.9
				C55.1,63.4,53.8,62.2,52.3,62.2z M54.9,76.3c0,0,0.1-2.5-2.9-2.5c-1.8,0-4.1,0.4-5.3,0.6v1.9h3.2v22.9h5V76.3z"/>
		</g>
	</g>
</g>
<g>
	<g transform="translate(144.537576, 297.409804)">
		<g>
			<path class="st0" d="M60.4,99.7c2.6,0,5.3-1.4,6.5-4c0.7,3,2.8,4,4.7,4c1,0,2.1-0.2,2.9-0.6v-1.9c-1.6,0-2.9-0.8-2.9-2.4V74.4
				l-1.9-0.6l-3.1,0.8c-1.3-0.7-3-0.8-4.6-0.8c-6.7,0-12.1,4.1-12.1,14.3C49.8,96.6,55.2,99.7,60.4,99.7z M66.6,88.8
				c0,6-3,8.4-5.7,8.4c-2.9,0-5.9-2.1-5.9-9.4c0-9.2,3.9-12,7.3-12c1.6,0,2.7,0.3,4.3,1.2V88.8z"/>
		</g>
	</g>
</g>
<g>
	<g transform="translate(164.430127, 297.409804)">
		<g>
			<path class="st0" d="M63.8,68.2l-2.4-0.6l-2.2,5.6l-3.8,1.2l0.4,1.9h3.1v16.6c0,3.9,2.1,6.8,7,6.8c3,0,4.6-1.2,6.3-3.1l-1.2-1.4
				c-1.1,1.2-2.3,2-4.2,2c-1.6,0-2.9-1.4-2.9-3.9v-17h6.6l0.4-1.9h-7V68.2z"/>
		</g>
	</g>
</g>
<g>
	<g transform="translate(177.002216, 297.409804)">
		<g>
			<path class="st0" d="M66.6,62.2c-1.6,0-2.9,1.3-2.9,2.9c0,1.6,1.3,2.9,2.9,2.9c1.5,0,2.9-1.3,2.9-2.9
				C69.5,63.4,68.2,62.2,66.6,62.2z M69.3,76.3c0,0,0.1-2.5-2.9-2.5c-1.8,0-4.1,0.4-5.3,0.6v1.9h3.2v22.9h5V76.3z"/>
		</g>
	</g>
</g>
<g>
	<g transform="translate(187.664619, 297.409804)">
		<g>
			<path class="st0" d="M77.1,73.8c-7.8,0-12.5,5-12.5,12.9c0,8,4.1,13,12.5,13c8.4,0,12.5-4.8,12.5-13C89.6,78.6,85,73.8,77.1,73.8
				z M77.1,75.7c4.5,0,7.3,4,7.3,10.8c0,6.7-2.8,11.2-7.3,11.2c-4.5,0-7.3-4.5-7.3-11.2S72.7,75.7,77.1,75.7z"/>
		</g>
	</g>
</g>
<g>
	<g transform="translate(209.148575, 297.409804)">
		<g>
			<path class="st0" d="M79.7,76.3c0,0,0.1-2.5-2.9-2.5c-1.8,0-4.1,0.4-5.3,0.6v1.9h3.2v22.9h5V87.4c0-7.9,3.9-11.1,6.6-11.1
				c2.7,0,4.3,2.2,4.3,5.6v13c0,3.7,2.6,4.8,4.6,4.8c1.4,0,2.8-0.2,3.6-0.6v-1.9c-1.6,0-3.1-0.8-3.1-2.4V83.2c0-5.8-2.4-9.4-8.2-9.4
				c-2.8,0-6.4,2.4-7.7,6.2V76.3z"/>
		</g>
	</g>
</g>
<g>
	<g transform="translate(231.945429, 297.409804)">
	</g>
</g>
<g>
	<g transform="translate(241.493841, 297.409804)">
		<g>
			<path class="st0" d="M92.6,64.2h4.9c5.7,0,8,3.2,8,8c0,3.8-3.1,8-8.1,8h-2.5v2.2l8.9,14.5l-0.4,2.2h10.1l0.4-2.2l-4.6-1.8
				l-6.9-11.3l-2.8-1.4c5.9,0,11.2-3.9,11.2-10.3c0-6.3-3.7-10.2-11.4-10.2H82.8l-0.4,2.2L87,66v29.2l-4.5,1.8l0.4,2.2h14l0.4-2.2
				l-4.6-1.8V64.2z"/>
		</g>
	</g>
</g>
<g>
	<g transform="translate(266.956301, 297.409804)">
		<g>
			<path class="st0" d="M103.6,73.8c-7.8,0-12.5,5-12.5,12.9c0,8,4.1,13,12.5,13c8.4,0,12.5-4.8,12.5-13
				C116,78.6,111.4,73.8,103.6,73.8z M103.6,75.7c4.5,0,7.3,4,7.3,10.8c0,6.7-2.8,11.2-7.3,11.2c-4.5,0-7.3-4.5-7.3-11.2
				S99.2,75.7,103.6,75.7z"/>
		</g>
	</g>
</g>
<g>
	<g transform="translate(288.440256, 297.409804)">
		<g>
			<path class="st0" d="M113.4,73.8c-2.8,0-6.1,2.2-7.2,6.2v-3.7c0,0,0.1-2.5-2.9-2.5c-1.8,0-4.1,0.4-5.3,0.6v1.9h3.2v22.9h5V87.4
				c0-7.5,3.3-11.1,5.9-11.1c2.5,0,4.4,2.2,4.4,5.4v17.5h5V85.9c0-6.6,3.2-9.6,5.8-9.6c3,0,4.5,2.7,4.5,6.6v12
				c0,3.7,2.6,4.8,4.6,4.8c1.4,0,2.8-0.2,3.6-0.6v-1.9c-1.6,0-3.1-0.8-3.1-2.4V83.3c0-5.6-2.3-9.5-8.3-9.5c-3,0-6.4,2.2-7.5,6.1
				C120.2,75.9,117.8,73.8,113.4,73.8z"/>
		</g>
	</g>
</g>
<g>
	<g transform="translate(322.257601, 297.409804)">
		<g>
			<path class="st0" d="M132.3,81.3c0-5.5-4.1-7.5-10.3-7.5c-7.4,0-12.7,4.8-12.7,12.9c0,7.8,4.4,13,13.8,13c3.4,0,6.8-1.1,9.1-3.1
				l-1.2-1.8c-2.2,1.4-4.8,2.4-7.6,2.4c-4.8,0-7.5-3.2-8.3-8.1C124.1,89.2,132.3,87.7,132.3,81.3z M114.9,86.3
				c0-6,2.3-10.6,6.9-10.6c3.7,0,5.5,1.5,5.5,4.9c0,3.9-5.5,6.6-12.4,6.7V86.3z"/>
		</g>
	</g>
</g>
<path class="st1" d="M228.7,106c0-7.6,11.6-11.9,16.7-22.9c5.6,11,16.7,15.4,16.7,22.9c0,6.5-4.1,10-9.2,10c-3.1,0-5.9-2.3-7.5-4.9
	c-1.7,2.5-4.4,4.9-7.5,4.9C232.8,116,228.7,112.5,228.7,106z"/>
<path class="st2" d="M245.4,111.1c-1.7,2.5-4.4,4.9-7.5,4.9c-5.1,0-9.2-3.6-9.2-10c0-7.6,11.6-11.9,16.7-22.9"/>
<path class="st1" d="M185.1,137.6c-5.3-5.3-0.2-16.6-4.4-28c11.7,3.9,22.7-0.9,28,4.4c4.6,4.6,4.2,10,0.6,13.6
	c-2.2,2.2-5.8,2.5-8.8,1.9c0.6,3,0.3,6.6-1.9,8.8C195.1,141.9,189.7,142.3,185.1,137.6z"/>
<path class="st1" d="M176.6,190.9c-7.6,0-11.9-11.6-22.9-16.7c11-5.6,15.4-16.7,22.9-16.7c6.5,0,10,4.1,10,9.2
	c0,3.1-2.3,5.9-4.9,7.5c2.5,1.7,4.9,4.4,4.9,7.5C186.7,186.8,183.1,190.9,176.6,190.9z"/>
<path class="st1" d="M208.3,234.5c-5.3,5.3-16.6,0.2-28,4.4c3.9-11.7-0.9-22.7,4.4-28c4.6-4.6,10-4.2,13.6-0.6
	c2.2,2.2,2.5,5.8,1.9,8.8c3-0.6,6.6-0.3,8.8,1.9C212.5,224.5,212.9,229.9,208.3,234.5z"/>
<path class="st1" d="M261.6,242.9c0,7.6-11.6,11.9-16.7,22.9c-5.6-11-16.7-15.4-16.7-22.9c0-6.5,4.1-10,9.2-10
	c3.1,0,5.9,2.3,7.5,4.9c1.7-2.5,4.4-4.9,7.5-4.9C257.5,232.9,261.6,236.4,261.6,242.9z"/>
<path class="st1" d="M305.2,211.3c5.3,5.3,0.2,16.6,4.4,28c-11.7-3.9-22.7,0.9-28-4.4c-4.6-4.6-4.2-10-0.6-13.6
	c2.2-2.2,5.8-2.5,8.8-1.9c-0.6-3-0.3-6.6,1.9-8.8C295.1,207,300.5,206.6,305.2,211.3z"/>
<path class="st1" d="M313.6,158c7.6,0,11.9,11.6,22.9,16.7c-11,5.6-15.4,16.7-22.9,16.7c-6.5,0-10-4.1-10-9.2c0-3.1,2.3-5.9,4.9-7.5
	c-2.5-1.7-4.9-4.4-4.9-7.5C303.6,162.1,307.1,158,313.6,158z"/>
<path class="st1" d="M281.9,114.4c5.3-5.3,16.6-0.2,28-4.4c-3.9,11.7,0.9,22.7-4.4,28c-4.6,4.6-10,4.2-13.6,0.6
	c-2.2-2.2-2.5-5.8-1.9-8.8c-3,0.6-6.6,0.3-8.8-1.9C277.7,124.4,277.3,119,281.9,114.4z"/>
<path class="st3" d="M225.7,131c5.3,5.3,0.2,16.6,4.4,28c-11.7-3.9-22.7,0.9-28-4.4c-4.6-4.6-4.2-10-0.6-13.6
	c2.2-2.2,5.8-2.5,8.8-1.8c-0.6-3-0.3-6.6,1.9-8.8C215.6,126.8,221.1,126.4,225.7,131z"/>
<path class="st3" d="M200.6,157.5c7.6,0,11.9,11.6,22.9,16.7c-11,5.6-15.4,16.7-22.9,16.7c-6.5,0-10-4.1-10-9.2
	c0-3.1,2.3-5.9,4.9-7.5c-2.5-1.7-4.9-4.4-4.9-7.5C190.6,161.6,194.2,157.5,200.6,157.5z"/>
<path class="st3" d="M201.7,193.9c5.3-5.3,16.6-0.2,28-4.4c-3.9,11.7,0.9,22.7-4.4,28c-4.6,4.6-10,4.2-13.6,0.6
	c-2.2-2.2-2.5-5.8-1.9-8.8c-3,0.6-6.6,0.3-8.8-1.9C197.5,203.9,197.1,198.5,201.7,193.9z"/>
<path class="st3" d="M228.1,218.9c0-7.6,11.6-11.9,16.7-22.9c5.6,11,16.7,15.4,16.7,22.9c0,6.5-4.1,10-9.2,10
	c-3.1,0-5.9-2.3-7.5-4.9c-1.7,2.5-4.4,4.9-7.5,4.9C232.2,228.9,228.1,225.4,228.1,218.9z"/>
<path class="st3" d="M264.6,217.9c-5.3-5.3-0.2-16.6-4.4-28c11.7,3.9,22.7-0.9,28,4.4c4.6,4.6,4.2,10,0.6,13.6
	c-2.2,2.2-5.8,2.5-8.8,1.8c0.6,3,0.3,6.6-1.9,8.8C274.6,222.1,269.1,222.5,264.6,217.9z"/>
<path class="st3" d="M289.6,191.4c-7.6,0-11.9-11.6-22.9-16.7c11-5.6,15.4-16.7,22.9-16.7c6.5,0,10,4.1,10,9.2
	c0,3.1-2.3,5.9-4.9,7.5c2.5,1.7,4.9,4.4,4.9,7.5C299.6,187.3,296.1,191.4,289.6,191.4z"/>
<path class="st3" d="M288.6,155c-5.3,5.3-16.6,0.2-28,4.4c3.9-11.7-0.9-22.7,4.4-28c4.6-4.6,10-4.2,13.6-0.6
	c2.2,2.2,2.5,5.8,1.9,8.8c3-0.6,6.6-0.3,8.8,1.9C292.7,145,293.1,150.4,288.6,155z"/>
<path class="st3" d="M228.7,130c0,7.6,11.6,12.4,16.7,23.5c5.6-11,16.7-16,16.7-23.5c0-6.5-4.1-10-9.2-10c-3.1,0-5.9,2.3-7.5,4.9
	c-1.7-2.5-4.4-4.9-7.5-4.9C232.8,119.9,228.7,123.5,228.7,130z"/>
<path class="st4" d="M245.4,124.8c-1.7-2.5-4.4-4.9-7.5-4.9c-5.1,0-9.2,3.6-9.2,10c0,7.6,11.6,12.4,16.7,23.5"/>
<path class="st4" d="M210.2,139.2c-3-0.6-6.6-0.3-8.8,1.8c-3.6,3.6-4,9,0.6,13.6c5.3,5.3,17,0.6,28.4,4.8"/>
<path class="st4" d="M195.5,174.1c-2.5,1.7-4.9,4.4-4.9,7.5c0,5.1,3.6,9.2,10,9.2c7.6,0,12.4-11.6,23.5-16.7"/>
<path class="st4" d="M209.8,209.3c-0.6,3-0.3,6.6,1.9,8.8c3.6,3.6,9,4,13.6-0.6c5.3-5.3,0.6-17,4.8-28.4"/>
<path class="st4" d="M244.8,224.1c1.7,2.5,4.4,4.9,7.5,4.9c5.1,0,9.2-3.6,9.2-10c0-7.6-11.6-12.4-16.7-23.5"/>
<path class="st4" d="M280,209.7c3,0.6,6.6,0.3,8.8-1.8c3.6-3.6,4-9-0.6-13.6c-5.3-5.3-17-0.6-28.4-4.8"/>
<path class="st4" d="M294.8,174.8c2.5-1.7,4.9-4.4,4.9-7.5c0-5.1-3.6-9.2-10-9.2c-7.6,0-12.4,11.6-23.5,16.7"/>
<path class="st4" d="M280.4,139.6c0.6-3,0.3-6.6-1.9-8.8c-3.6-3.6-9-4-13.6,0.6c-5.3,5.3-0.6,17-4.8,28.4"/>
<path class="st5" d="M251.9,174.4c0,0.4,0,0.9-0.1,1.3c-0.1,0.4-0.2,0.9-0.4,1.3c-0.2,0.4-0.4,0.8-0.6,1.2c-0.2,0.4-0.5,0.7-0.8,1
	c-0.3,0.3-0.7,0.6-1,0.8c-0.4,0.2-0.8,0.5-1.2,0.6c-0.4,0.2-0.8,0.3-1.3,0.4c-0.4,0.1-0.9,0.1-1.3,0.1c-0.4,0-0.9,0-1.3-0.1
	c-0.4-0.1-0.9-0.2-1.3-0.4c-0.4-0.2-0.8-0.4-1.2-0.6c-0.4-0.2-0.7-0.5-1-0.8c-0.3-0.3-0.6-0.7-0.8-1c-0.2-0.4-0.5-0.8-0.6-1.2
	c-0.2-0.4-0.3-0.8-0.4-1.3c-0.1-0.4-0.1-0.9-0.1-1.3c0-0.4,0-0.9,0.1-1.3c0.1-0.4,0.2-0.9,0.4-1.3c0.2-0.4,0.4-0.8,0.6-1.2
	c0.2-0.4,0.5-0.7,0.8-1c0.3-0.3,0.7-0.6,1-0.8c0.4-0.2,0.8-0.5,1.2-0.6c0.4-0.2,0.8-0.3,1.3-0.4c0.4-0.1,0.9-0.1,1.3-0.1
	c0.4,0,0.9,0,1.3,0.1c0.4,0.1,0.9,0.2,1.3,0.4c0.4,0.2,0.8,0.4,1.2,0.6c0.4,0.2,0.7,0.5,1,0.8c0.3,0.3,0.6,0.7,0.8,1
	c0.2,0.4,0.5,0.8,0.6,1.2c0.2,0.4,0.3,0.8,0.4,1.3C251.9,173.6,251.9,174,251.9,174.4z"/>
<path class="st5" d="M240.9,155.8c0,0.5-0.1,0.9-0.3,1.3c-0.2,0.4-0.4,0.8-0.7,1.1c-0.3,0.3-0.7,0.6-1.1,0.7
	c-0.4,0.2-0.8,0.3-1.3,0.3c-0.4,0-0.9-0.1-1.3-0.3c-0.4-0.2-0.8-0.4-1.1-0.7c-0.3-0.3-0.6-0.7-0.7-1.1c-0.2-0.4-0.3-0.8-0.3-1.3
	c0-0.4,0.1-0.9,0.3-1.3s0.4-0.8,0.7-1.1c0.3-0.3,0.7-0.6,1.1-0.7c0.4-0.2,0.8-0.3,1.3-0.3c0.5,0,0.9,0.1,1.3,0.3
	c0.4,0.2,0.8,0.4,1.1,0.7c0.3,0.3,0.6,0.7,0.7,1.1S240.9,155.3,240.9,155.8z"/>
<path class="st5" d="M229.9,166.6c0,0.4-0.1,0.9-0.3,1.3s-0.4,0.8-0.7,1.1c-0.3,0.3-0.7,0.6-1.1,0.7s-0.8,0.3-1.3,0.3
	c-0.5,0-0.9-0.1-1.3-0.3c-0.4-0.2-0.8-0.4-1.1-0.7c-0.3-0.3-0.6-0.7-0.7-1.1s-0.3-0.8-0.3-1.3c0-0.5,0.1-0.9,0.3-1.3
	c0.2-0.4,0.4-0.8,0.7-1.1c0.3-0.3,0.7-0.6,1.1-0.7c0.4-0.2,0.8-0.3,1.3-0.3c0.4,0,0.9,0.1,1.3,0.3s0.8,0.4,1.1,0.7
	c0.3,0.3,0.6,0.7,0.7,1.1C229.8,165.7,229.9,166.1,229.9,166.6z"/>
<path class="st5" d="M229.8,182c0,0.5-0.1,0.9-0.3,1.3c-0.2,0.4-0.4,0.8-0.7,1.1c-0.3,0.3-0.7,0.6-1.1,0.7c-0.4,0.2-0.9,0.3-1.3,0.3
	c-0.5,0-0.9-0.1-1.3-0.3c-0.4-0.2-0.8-0.4-1.1-0.7c-0.3-0.3-0.6-0.7-0.7-1.1c-0.2-0.4-0.3-0.8-0.3-1.3c0-0.4,0.1-0.9,0.3-1.3
	c0.2-0.4,0.4-0.8,0.7-1.1c0.3-0.3,0.7-0.6,1.1-0.7c0.4-0.2,0.8-0.3,1.3-0.3c0.4,0,0.9,0.1,1.3,0.3c0.4,0.2,0.8,0.4,1.1,0.7
	c0.3,0.3,0.6,0.7,0.7,1.1C229.7,181.1,229.8,181.6,229.8,182z"/>
<path class="st5" d="M240.6,193.1c0,0.4-0.1,0.9-0.3,1.3c-0.2,0.4-0.4,0.8-0.7,1.1c-0.3,0.3-0.7,0.6-1.1,0.7s-0.8,0.3-1.3,0.3
	c-0.4,0-0.9-0.1-1.3-0.3c-0.4-0.2-0.8-0.4-1.1-0.7c-0.3-0.3-0.6-0.7-0.7-1.1c-0.2-0.4-0.3-0.8-0.3-1.3c0-0.5,0.1-0.9,0.3-1.3
	c0.2-0.4,0.4-0.8,0.7-1.1c0.3-0.3,0.7-0.6,1.1-0.7c0.4-0.2,0.9-0.3,1.3-0.3c0.5,0,0.9,0.1,1.3,0.3s0.8,0.4,1.1,0.7
	c0.3,0.3,0.6,0.7,0.7,1.1C240.6,192.2,240.6,192.6,240.6,193.1z"/>
<path class="st5" d="M256.1,193.1c0,0.4-0.1,0.9-0.3,1.3c-0.2,0.4-0.4,0.8-0.7,1.1c-0.3,0.3-0.7,0.6-1.1,0.7s-0.8,0.3-1.3,0.3
	c-0.5,0-0.9-0.1-1.3-0.3c-0.4-0.2-0.8-0.4-1.1-0.7c-0.3-0.3-0.6-0.7-0.7-1.1c-0.2-0.4-0.3-0.8-0.3-1.3c0-0.5,0.1-0.9,0.3-1.3
	c0.2-0.4,0.4-0.8,0.7-1.1c0.3-0.3,0.7-0.6,1.1-0.7c0.4-0.2,0.8-0.3,1.3-0.3c0.4,0,0.9,0.1,1.3,0.3s0.8,0.4,1.1,0.7
	c0.3,0.3,0.6,0.7,0.7,1.1C256,192.2,256.1,192.7,256.1,193.1z"/>
<path class="st5" d="M267.1,182.3c0,0.5-0.1,0.9-0.3,1.3s-0.4,0.8-0.7,1.1c-0.3,0.3-0.7,0.6-1.1,0.7s-0.8,0.3-1.3,0.3
	c-0.4,0-0.9-0.1-1.3-0.3c-0.4-0.2-0.8-0.4-1.1-0.7c-0.3-0.3-0.6-0.7-0.7-1.1s-0.3-0.8-0.3-1.3c0-0.4,0.1-0.9,0.3-1.3
	c0.2-0.4,0.4-0.8,0.7-1.1s0.7-0.6,1.1-0.7c0.4-0.2,0.8-0.3,1.3-0.3c0.5,0,0.9,0.1,1.3,0.3s0.8,0.4,1.1,0.7c0.3,0.3,0.6,0.7,0.7,1.1
	C267,181.4,267.1,181.9,267.1,182.3z"/>
<path class="st5" d="M267.2,166.9c0,0.4-0.1,0.9-0.3,1.3c-0.2,0.4-0.4,0.8-0.7,1.1c-0.3,0.3-0.7,0.6-1.1,0.7
	c-0.4,0.2-0.9,0.3-1.3,0.3c-0.5,0-0.9-0.1-1.3-0.3c-0.4-0.2-0.8-0.4-1.1-0.7c-0.3-0.3-0.6-0.7-0.7-1.1c-0.2-0.4-0.3-0.8-0.3-1.3
	c0-0.5,0.1-0.9,0.3-1.3c0.2-0.4,0.4-0.8,0.7-1.1s0.7-0.6,1.1-0.7c0.4-0.2,0.8-0.3,1.3-0.3c0.4,0,0.9,0.1,1.3,0.3
	c0.4,0.2,0.8,0.4,1.1,0.7c0.3,0.3,0.6,0.7,0.7,1.1C267.1,166,267.2,166.4,267.2,166.9z"/>
<path class="st5" d="M256.4,155.8c0,0.5-0.1,0.9-0.3,1.3c-0.2,0.4-0.4,0.8-0.7,1.1c-0.3,0.3-0.7,0.6-1.1,0.7
	c-0.4,0.2-0.8,0.3-1.3,0.3c-0.5,0-0.9-0.1-1.3-0.3c-0.4-0.2-0.8-0.4-1.1-0.7c-0.3-0.3-0.6-0.7-0.7-1.1c-0.2-0.4-0.3-0.8-0.3-1.3
	c0-0.4,0.1-0.9,0.3-1.3s0.4-0.8,0.7-1.1c0.3-0.3,0.7-0.6,1.1-0.7c0.4-0.2,0.8-0.3,1.3-0.3c0.4,0,0.9,0.1,1.3,0.3
	c0.4,0.2,0.8,0.4,1.1,0.7c0.3,0.3,0.6,0.7,0.7,1.1S256.4,155.4,256.4,155.8z"/>
<path class="st2" d="M245.1,181.2c-3.8,0-6.8-3-6.8-6.8c0-3.8,3-6.8,6.8-6.8V181.2z"/>
<path class="st1" d="M226.1,116c0,0.7-0.1,1.3-0.4,1.9c-0.2,0.6-0.6,1.1-1.1,1.6c-0.5,0.5-1,0.8-1.6,1.1s-1.2,0.4-1.9,0.4
	s-1.3-0.1-1.9-0.4s-1.1-0.6-1.6-1.1c-0.5-0.5-0.8-1-1.1-1.6c-0.3-0.6-0.4-1.2-0.4-1.9s0.1-1.3,0.4-1.9c0.2-0.6,0.6-1.1,1.1-1.6
	c0.5-0.5,1-0.8,1.6-1.1c0.6-0.3,1.2-0.4,1.9-0.4s1.3,0.1,1.9,0.4c0.6,0.2,1.1,0.6,1.6,1.1c0.5,0.5,0.8,1,1.1,1.6
	C226,114.7,226.1,115.3,226.1,116z"/>
<path class="st1" d="M191.8,150.1c0,0.7-0.1,1.3-0.4,1.9c-0.2,0.6-0.6,1.1-1.1,1.6s-1,0.8-1.6,1.1c-0.6,0.2-1.2,0.4-1.9,0.4
	s-1.3-0.1-1.9-0.4c-0.6-0.2-1.1-0.6-1.6-1.1c-0.5-0.5-0.8-1-1.1-1.6c-0.2-0.6-0.4-1.2-0.4-1.9c0-0.7,0.1-1.3,0.4-1.9
	c0.3-0.6,0.6-1.1,1.1-1.6c0.5-0.5,1-0.8,1.6-1.1c0.6-0.2,1.2-0.4,1.9-0.4s1.3,0.1,1.9,0.4c0.6,0.2,1.1,0.6,1.6,1.1s0.8,1,1.1,1.6
	C191.7,148.8,191.8,149.4,191.8,150.1z"/>
<path class="st1" d="M191.6,198.4c0,0.7-0.1,1.3-0.4,1.9c-0.2,0.6-0.6,1.1-1.1,1.6s-1,0.8-1.6,1.1c-0.6,0.2-1.2,0.4-1.9,0.4
	c-0.7,0-1.3-0.1-1.9-0.4c-0.6-0.2-1.1-0.6-1.6-1.1s-0.8-1-1.1-1.6c-0.2-0.6-0.4-1.2-0.4-1.9c0-0.7,0.1-1.3,0.4-1.9
	c0.2-0.6,0.6-1.1,1.1-1.6s1-0.8,1.6-1.1c0.6-0.2,1.2-0.4,1.9-0.4c0.7,0,1.3,0.1,1.9,0.4c0.6,0.2,1.1,0.6,1.6,1.1s0.8,1,1.1,1.6
	C191.5,197.1,191.6,197.7,191.6,198.4z"/>
<path class="st1" d="M225.7,232.7c0,0.7-0.1,1.3-0.4,1.9c-0.3,0.6-0.6,1.1-1.1,1.6c-0.5,0.5-1,0.8-1.6,1.1c-0.6,0.2-1.2,0.4-1.9,0.4
	s-1.3-0.1-1.9-0.4c-0.6-0.2-1.1-0.6-1.6-1.1c-0.5-0.5-0.8-1-1.1-1.6c-0.2-0.6-0.4-1.2-0.4-1.9c0-0.7,0.1-1.3,0.4-1.9
	c0.2-0.6,0.6-1.1,1.1-1.6c0.5-0.5,1-0.8,1.6-1.1c0.6-0.2,1.2-0.4,1.9-0.4s1.3,0.1,1.9,0.4c0.6,0.2,1.1,0.6,1.6,1.1
	c0.5,0.5,0.8,1,1.1,1.6C225.5,231.4,225.7,232,225.7,232.7z"/>
<path class="st1" d="M274,232.9c0,0.7-0.1,1.3-0.4,1.9s-0.6,1.1-1.1,1.6c-0.5,0.5-1,0.8-1.6,1.1c-0.6,0.3-1.2,0.4-1.9,0.4
	s-1.3-0.1-1.9-0.4c-0.6-0.2-1.1-0.6-1.6-1.1c-0.5-0.5-0.8-1-1.1-1.6c-0.2-0.6-0.4-1.2-0.4-1.9s0.1-1.3,0.4-1.9
	c0.3-0.6,0.6-1.1,1.1-1.6c0.5-0.5,1-0.8,1.6-1.1c0.6-0.3,1.2-0.4,1.9-0.4s1.3,0.1,1.9,0.4c0.6,0.2,1.1,0.6,1.6,1.1
	c0.5,0.5,0.8,1,1.1,1.6S274,232.2,274,232.9z"/>
<path class="st1" d="M308.3,198.8c0,0.7-0.1,1.3-0.4,1.9c-0.2,0.6-0.6,1.1-1.1,1.6c-0.5,0.5-1,0.8-1.6,1.1c-0.6,0.2-1.2,0.4-1.9,0.4
	s-1.3-0.1-1.9-0.4c-0.6-0.2-1.1-0.6-1.6-1.1c-0.5-0.5-0.8-1-1.1-1.6c-0.3-0.6-0.4-1.2-0.4-1.9c0-0.7,0.1-1.3,0.4-1.9
	c0.2-0.6,0.6-1.1,1.1-1.6c0.5-0.5,1-0.8,1.6-1.1c0.6-0.2,1.2-0.4,1.9-0.4s1.3,0.1,1.9,0.4c0.6,0.2,1.1,0.6,1.6,1.1
	c0.5,0.5,0.8,1,1.1,1.6C308.1,197.6,308.3,198.2,308.3,198.8z"/>
<path class="st1" d="M308.5,150.5c0,0.7-0.1,1.3-0.4,1.9c-0.2,0.6-0.6,1.1-1.1,1.6c-0.5,0.5-1,0.8-1.6,1.1c-0.6,0.2-1.2,0.4-1.9,0.4
	c-0.7,0-1.3-0.1-1.9-0.4c-0.6-0.2-1.1-0.6-1.6-1.1c-0.5-0.5-0.8-1-1.1-1.6c-0.2-0.6-0.4-1.2-0.4-1.9c0-0.7,0.1-1.3,0.4-1.9
	c0.2-0.6,0.6-1.1,1.1-1.6c0.5-0.5,1-0.8,1.6-1.1c0.6-0.2,1.2-0.4,1.9-0.4c0.7,0,1.3,0.1,1.9,0.4c0.6,0.2,1.1,0.6,1.6,1.1
	c0.5,0.5,0.8,1,1.1,1.6C308.4,149.2,308.5,149.9,308.5,150.5z"/>
<path class="st1" d="M274.4,116.2c0,0.7-0.1,1.3-0.4,1.9c-0.2,0.6-0.6,1.1-1.1,1.6c-0.5,0.5-1,0.8-1.6,1.1c-0.6,0.2-1.2,0.4-1.9,0.4
	s-1.3-0.1-1.9-0.4c-0.6-0.2-1.1-0.6-1.6-1.1c-0.5-0.5-0.8-1-1.1-1.6c-0.2-0.6-0.4-1.2-0.4-1.9c0-0.7,0.1-1.3,0.4-1.9
	c0.3-0.6,0.6-1.1,1.1-1.6c0.5-0.5,1-0.8,1.6-1.1c0.6-0.2,1.2-0.4,1.9-0.4s1.3,0.1,1.9,0.4c0.6,0.2,1.1,0.6,1.6,1.1
	c0.5,0.5,0.8,1,1.1,1.6C274.3,115,274.4,115.6,274.4,116.2z"/>
<path class="st1" d="M250.4,135.8c0,0.7-0.1,1.3-0.4,1.9c-0.2,0.6-0.6,1.1-1.1,1.6s-1,0.8-1.6,1.1c-0.6,0.2-1.2,0.4-1.9,0.4
	s-1.3-0.1-1.9-0.4c-0.6-0.2-1.1-0.6-1.6-1.1c-0.5-0.5-0.8-1-1.1-1.6c-0.2-0.6-0.4-1.2-0.4-1.9c0-0.7,0.1-1.3,0.4-1.9
	c0.2-0.6,0.6-1.1,1.1-1.6c0.5-0.5,1-0.8,1.6-1.1c0.6-0.2,1.2-0.4,1.9-0.4s1.3,0.1,1.9,0.4c0.6,0.2,1.1,0.6,1.6,1.1s0.8,1,1.1,1.6
	C250.2,134.5,250.4,135.1,250.4,135.8z"/>
<path class="st1" d="M222.9,146.8c0,0.7-0.1,1.3-0.4,1.9s-0.6,1.1-1.1,1.6c-0.5,0.5-1,0.8-1.6,1.1c-0.6,0.3-1.2,0.4-1.9,0.4
	c-0.7,0-1.3-0.1-1.9-0.4c-0.6-0.2-1.1-0.6-1.6-1.1c-0.5-0.5-0.8-1-1.1-1.6s-0.4-1.2-0.4-1.9s0.1-1.3,0.4-1.9s0.6-1.1,1.1-1.6
	c0.5-0.5,1-0.8,1.6-1.1c0.6-0.2,1.2-0.4,1.9-0.4c0.7,0,1.3,0.1,1.9,0.4c0.6,0.2,1.1,0.6,1.6,1.1c0.5,0.5,0.8,1,1.1,1.6
	S222.9,146.2,222.9,146.8z"/>
<path class="st1" d="M211.4,174.1c0,0.7-0.1,1.3-0.4,1.9c-0.2,0.6-0.6,1.1-1.1,1.6c-0.5,0.5-1,0.8-1.6,1.1c-0.6,0.2-1.2,0.4-1.9,0.4
	s-1.3-0.1-1.9-0.4c-0.6-0.3-1.1-0.6-1.6-1.1c-0.5-0.5-0.8-1-1.1-1.6c-0.3-0.6-0.4-1.2-0.4-1.9s0.1-1.3,0.4-1.9
	c0.2-0.6,0.6-1.1,1.1-1.6c0.5-0.5,1-0.8,1.6-1.1c0.6-0.2,1.2-0.4,1.9-0.4s1.3,0.1,1.9,0.4c0.6,0.2,1.1,0.6,1.6,1.1
	c0.5,0.5,0.8,1,1.1,1.6C211.3,172.8,211.4,173.5,211.4,174.1z"/>
<path class="st1" d="M222.4,201.6c0,0.7-0.1,1.3-0.4,1.9s-0.6,1.1-1.1,1.6c-0.5,0.5-1,0.8-1.6,1.1c-0.6,0.3-1.2,0.4-1.9,0.4
	c-0.7,0-1.3-0.1-1.9-0.4c-0.6-0.2-1.1-0.6-1.6-1.1c-0.5-0.5-0.8-1-1.1-1.6s-0.4-1.2-0.4-1.9s0.1-1.3,0.4-1.9s0.6-1.1,1.1-1.6
	c0.5-0.5,1-0.8,1.6-1.1c0.6-0.3,1.2-0.4,1.9-0.4c0.7,0,1.3,0.1,1.9,0.4c0.6,0.2,1.1,0.6,1.6,1.1c0.5,0.5,0.8,1,1.1,1.6
	S222.4,201,222.4,201.6z"/>
<path class="st1" d="M249.7,213.1c0,0.7-0.1,1.3-0.4,1.9c-0.2,0.6-0.6,1.1-1.1,1.6c-0.5,0.5-1,0.8-1.6,1.1c-0.6,0.2-1.2,0.4-1.9,0.4
	c-0.7,0-1.3-0.1-1.9-0.4c-0.6-0.2-1.1-0.6-1.6-1.1c-0.5-0.5-0.8-1-1.1-1.6c-0.2-0.6-0.4-1.2-0.4-1.9c0-0.7,0.1-1.3,0.4-1.9
	c0.2-0.6,0.6-1.1,1.1-1.6c0.5-0.5,1-0.8,1.6-1.1c0.6-0.2,1.2-0.4,1.9-0.4c0.7,0,1.3,0.1,1.9,0.4c0.6,0.2,1.1,0.6,1.6,1.1
	c0.5,0.5,0.8,1,1.1,1.6C249.6,211.8,249.7,212.5,249.7,213.1z"/>
<path class="st1" d="M277.2,202.1c0,0.7-0.1,1.3-0.4,1.9c-0.2,0.6-0.6,1.1-1.1,1.6c-0.5,0.5-1,0.8-1.6,1.1c-0.6,0.2-1.2,0.4-1.9,0.4
	c-0.7,0-1.3-0.1-1.9-0.4c-0.6-0.2-1.1-0.6-1.6-1.1c-0.5-0.5-0.8-1-1.1-1.6c-0.2-0.6-0.4-1.2-0.4-1.9s0.1-1.3,0.4-1.9
	c0.2-0.6,0.6-1.1,1.1-1.6c0.5-0.5,1-0.8,1.6-1.1c0.6-0.2,1.2-0.4,1.9-0.4c0.7,0,1.3,0.1,1.9,0.4c0.6,0.3,1.1,0.6,1.6,1.1
	c0.5,0.5,0.8,1,1.1,1.6C277.1,200.8,277.2,201.4,277.2,202.1z"/>
<path class="st1" d="M288.7,174.8c0,0.7-0.1,1.3-0.4,1.9c-0.2,0.6-0.6,1.1-1.1,1.6c-0.5,0.5-1,0.8-1.6,1.1c-0.6,0.2-1.2,0.4-1.9,0.4
	s-1.3-0.1-1.9-0.4c-0.6-0.2-1.1-0.6-1.6-1.1c-0.5-0.5-0.8-1-1.1-1.6c-0.3-0.6-0.4-1.2-0.4-1.9s0.1-1.3,0.4-1.9
	c0.2-0.6,0.6-1.1,1.1-1.6c0.5-0.5,1-0.8,1.6-1.1c0.6-0.2,1.2-0.4,1.9-0.4s1.3,0.1,1.9,0.4c0.6,0.2,1.1,0.6,1.6,1.1s0.8,1,1.1,1.6
	C288.6,173.5,288.7,174.1,288.7,174.8z"/>
<path class="st1" d="M277.7,147.3c0,0.7-0.1,1.3-0.4,1.9c-0.2,0.6-0.6,1.1-1.1,1.6c-0.5,0.5-1,0.8-1.6,1.1c-0.6,0.3-1.2,0.4-1.9,0.4
	c-0.7,0-1.3-0.1-1.9-0.4c-0.6-0.2-1.1-0.6-1.6-1.1c-0.5-0.5-0.8-1-1.1-1.6c-0.2-0.6-0.4-1.2-0.4-1.9s0.1-1.3,0.4-1.9
	c0.2-0.6,0.6-1.1,1.1-1.6c0.5-0.5,1-0.8,1.6-1.1c0.6-0.3,1.2-0.4,1.9-0.4c0.7,0,1.3,0.1,1.9,0.4c0.6,0.2,1.1,0.6,1.6,1.1
	c0.5,0.5,0.8,1,1.1,1.6C277.6,146,277.7,146.6,277.7,147.3z"/>
<path class="st2" d="M245.4,140.6c-2.7,0-4.9-2.2-4.9-4.9c0-2.7,2.2-4.9,4.9-4.9V140.6z"/>
<path class="st2" d="M221.5,150.4c-1.9,1.9-5,1.9-6.9,0c-1.9-1.9-1.9-5,0-6.9L221.5,150.4z"/>
<path class="st2" d="M211.3,174.1c0,2.7-2.2,4.9-4.9,4.9s-4.9-2.2-4.9-4.9H211.3z"/>
<path class="st2" d="M221,198.1c1.9,1.9,1.9,5,0,6.9c-1.9,1.9-5,1.9-6.9,0L221,198.1z"/>
<path class="st2" d="M244.8,208.3c2.7,0,4.9,2.2,4.9,4.9c0,2.7-2.2,4.9-4.9,4.9V208.3z"/>
<path class="st2" d="M268.7,198.5c1.9-1.9,5-1.9,6.9,0c1.9,1.9,1.9,5,0,6.9L268.7,198.5z"/>
<path class="st2" d="M278.9,174.8c0-2.7,2.2-4.9,4.9-4.9s4.9,2.2,4.9,4.9H278.9z"/>
<path class="st2" d="M269.2,150.8c-1.9-1.9-1.9-5,0-6.9c1.9-1.9,5-1.9,6.9,0L269.2,150.8z"/>
<path class="st2" d="M181.8,174.1c2.5,1.7,4.9,4.4,4.9,7.5c0,5.1-3.5,9.2-10,9.2c-7.6,0-11.9-11.6-22.9-16.7"/>
<path class="st2" d="M290.1,129.8c-3,0.6-6.6,0.3-8.8-1.9c-3.6-3.6-4-9,0.6-13.6c5.3-5.3,16.6-0.2,28-4.4"/>
<path class="st2" d="M200.5,129.4c0.6,3,0.3,6.6-1.9,8.8c-3.6,3.6-9,4-13.6-0.6c-5.3-5.3-0.2-16.6-4.4-28"/>
<path class="st2" d="M200.1,219.1c3-0.6,6.6-0.3,8.8,1.9c3.6,3.6,4,9-0.6,13.6c-5.3,5.3-16.6,0.2-28,4.4"/>
<path class="st2" d="M244.8,237.8c1.7-2.5,4.4-4.9,7.5-4.9c5.1,0,9.2,3.6,9.2,10c0,7.6-11.6,11.9-16.7,22.9"/>
<path class="st2" d="M289.7,219.5c-0.6-3-0.3-6.6,1.9-8.8c3.6-3.6,9-4,13.6,0.6c5.3,5.3,0.2,16.6,4.4,28"/>
<path class="st2" d="M308.4,174.8c-2.5-1.7-4.9-4.4-4.9-7.5c0-5.1,3.5-9.2,10-9.2c7.6,0,11.9,11.6,22.9,16.7"/>
<path class="st5" d="M251.5,101.3c0,0.4,0,0.8-0.1,1.2c-0.1,0.4-0.2,0.8-0.3,1.1c-0.2,0.4-0.3,0.7-0.6,1.1s-0.5,0.6-0.8,0.9
	c-0.3,0.3-0.6,0.5-0.9,0.8c-0.3,0.2-0.7,0.4-1.1,0.6c-0.4,0.2-0.8,0.3-1.1,0.3c-0.4,0.1-0.8,0.1-1.2,0.1c-0.4,0-0.8,0-1.2-0.1
	c-0.4-0.1-0.8-0.2-1.1-0.3c-0.4-0.2-0.7-0.3-1.1-0.6c-0.3-0.2-0.6-0.5-0.9-0.8c-0.3-0.3-0.5-0.6-0.8-0.9c-0.2-0.3-0.4-0.7-0.6-1.1
	c-0.2-0.4-0.3-0.8-0.3-1.1c-0.1-0.4-0.1-0.8-0.1-1.2c0-0.4,0-0.8,0.1-1.2c0.1-0.4,0.2-0.8,0.3-1.1c0.2-0.4,0.3-0.7,0.6-1.1
	c0.2-0.3,0.5-0.6,0.8-0.9c0.3-0.3,0.6-0.5,0.9-0.8c0.3-0.2,0.7-0.4,1.1-0.6c0.4-0.2,0.8-0.3,1.1-0.3c0.4-0.1,0.8-0.1,1.2-0.1
	c0.4,0,0.8,0,1.2,0.1c0.4,0.1,0.8,0.2,1.1,0.3c0.4,0.2,0.7,0.3,1.1,0.6c0.3,0.2,0.6,0.5,0.9,0.8c0.3,0.3,0.5,0.6,0.8,0.9
	c0.2,0.3,0.4,0.7,0.6,1.1c0.2,0.4,0.3,0.8,0.3,1.1C251.5,100.5,251.5,100.9,251.5,101.3z"/>
<path class="st5" d="M178,174.1c0,0.4,0,0.8-0.1,1.2c-0.1,0.4-0.2,0.8-0.3,1.1c-0.2,0.4-0.3,0.7-0.6,1.1c-0.2,0.3-0.5,0.6-0.8,0.9
	c-0.3,0.3-0.6,0.5-0.9,0.8c-0.3,0.2-0.7,0.4-1.1,0.6c-0.4,0.2-0.8,0.3-1.1,0.3c-0.4,0.1-0.8,0.1-1.2,0.1c-0.4,0-0.8,0-1.2-0.1
	c-0.4-0.1-0.8-0.2-1.1-0.3c-0.4-0.2-0.7-0.3-1.1-0.6c-0.3-0.2-0.6-0.5-0.9-0.8c-0.3-0.3-0.5-0.6-0.8-0.9c-0.2-0.3-0.4-0.7-0.6-1.1
	c-0.2-0.4-0.3-0.8-0.3-1.1c-0.1-0.4-0.1-0.8-0.1-1.2s0-0.8,0.1-1.2c0.1-0.4,0.2-0.8,0.3-1.1c0.2-0.4,0.3-0.7,0.6-1.1
	c0.2-0.3,0.5-0.6,0.8-0.9c0.3-0.3,0.6-0.5,0.9-0.8c0.3-0.2,0.7-0.4,1.1-0.6c0.4-0.2,0.8-0.3,1.1-0.3c0.4-0.1,0.8-0.1,1.2-0.1
	c0.4,0,0.8,0,1.2,0.1c0.4,0.1,0.8,0.2,1.1,0.3c0.4,0.2,0.7,0.3,1.1,0.6c0.3,0.2,0.6,0.5,0.9,0.8c0.3,0.3,0.5,0.6,0.8,0.9
	c0.2,0.3,0.4,0.7,0.6,1.1c0.2,0.4,0.3,0.8,0.3,1.1C178,173.3,178,173.7,178,174.1z"/>
<path class="st5" d="M250.9,247.6c0,0.4,0,0.8-0.1,1.2c-0.1,0.4-0.2,0.8-0.3,1.1c-0.2,0.4-0.3,0.7-0.6,1.1c-0.2,0.3-0.5,0.6-0.8,0.9
	c-0.3,0.3-0.6,0.5-0.9,0.8c-0.3,0.2-0.7,0.4-1.1,0.6c-0.4,0.2-0.8,0.3-1.1,0.3c-0.4,0.1-0.8,0.1-1.2,0.1s-0.8,0-1.2-0.1
	c-0.4-0.1-0.8-0.2-1.1-0.3c-0.4-0.2-0.7-0.3-1.1-0.6c-0.3-0.2-0.6-0.5-0.9-0.8c-0.3-0.3-0.5-0.6-0.8-0.9c-0.2-0.3-0.4-0.7-0.6-1.1
	c-0.2-0.4-0.3-0.8-0.3-1.1c-0.1-0.4-0.1-0.8-0.1-1.2c0-0.4,0-0.8,0.1-1.2c0.1-0.4,0.2-0.8,0.3-1.1c0.2-0.4,0.3-0.7,0.6-1.1
	c0.2-0.3,0.5-0.6,0.8-0.9c0.3-0.3,0.6-0.5,0.9-0.8c0.3-0.2,0.7-0.4,1.1-0.6c0.4-0.2,0.8-0.3,1.1-0.3c0.4-0.1,0.8-0.1,1.2-0.1
	s0.8,0,1.2,0.1c0.4,0.1,0.8,0.2,1.1,0.3c0.4,0.2,0.7,0.3,1.1,0.6c0.3,0.2,0.6,0.5,0.9,0.8c0.3,0.3,0.5,0.6,0.8,0.9
	c0.2,0.3,0.4,0.7,0.6,1.1c0.2,0.4,0.3,0.8,0.3,1.1C250.9,246.8,250.9,247.2,250.9,247.6z"/>
<path class="st5" d="M324.4,174.8c0,0.4,0,0.8-0.1,1.2c-0.1,0.4-0.2,0.8-0.3,1.1c-0.2,0.4-0.3,0.7-0.6,1.1c-0.2,0.3-0.5,0.6-0.8,0.9
	c-0.3,0.3-0.6,0.5-0.9,0.8c-0.3,0.2-0.7,0.4-1.1,0.6c-0.4,0.2-0.8,0.3-1.1,0.3s-0.8,0.1-1.2,0.1c-0.4,0-0.8,0-1.2-0.1
	c-0.4-0.1-0.8-0.2-1.1-0.3c-0.4-0.2-0.7-0.3-1.1-0.6c-0.3-0.2-0.6-0.5-0.9-0.8c-0.3-0.3-0.5-0.6-0.8-0.9c-0.2-0.3-0.4-0.7-0.6-1.1
	c-0.2-0.4-0.3-0.8-0.3-1.1c-0.1-0.4-0.1-0.8-0.1-1.2c0-0.4,0-0.8,0.1-1.2c0.1-0.4,0.2-0.8,0.3-1.1c0.2-0.4,0.3-0.7,0.6-1.1
	c0.2-0.3,0.5-0.6,0.8-0.9c0.3-0.3,0.6-0.5,0.9-0.8s0.7-0.4,1.1-0.6c0.4-0.2,0.8-0.3,1.1-0.3c0.4-0.1,0.8-0.1,1.2-0.1
	c0.4,0,0.8,0,1.2,0.1s0.8,0.2,1.1,0.3c0.4,0.2,0.7,0.3,1.1,0.6c0.3,0.2,0.6,0.5,0.9,0.8c0.3,0.3,0.5,0.6,0.8,0.9
	c0.2,0.3,0.4,0.7,0.6,1.1c0.2,0.4,0.3,0.8,0.3,1.1C324.4,174,324.4,174.4,324.4,174.8z"/>
<path class="st3" d="M199.7,122.5c0,0.4,0,0.8-0.1,1.2c-0.1,0.4-0.2,0.8-0.3,1.1c-0.2,0.4-0.3,0.7-0.6,1.1c-0.2,0.3-0.5,0.6-0.8,0.9
	c-0.3,0.3-0.6,0.5-0.9,0.8c-0.3,0.2-0.7,0.4-1.1,0.6c-0.4,0.2-0.8,0.3-1.1,0.3c-0.4,0.1-0.8,0.1-1.2,0.1c-0.4,0-0.8,0-1.2-0.1
	s-0.8-0.2-1.1-0.3c-0.4-0.2-0.7-0.3-1.1-0.6c-0.3-0.2-0.6-0.5-0.9-0.8c-0.3-0.3-0.5-0.6-0.8-0.9c-0.2-0.3-0.4-0.7-0.6-1.1
	c-0.2-0.4-0.3-0.8-0.3-1.1c-0.1-0.4-0.1-0.8-0.1-1.2s0-0.8,0.1-1.2c0.1-0.4,0.2-0.8,0.3-1.1c0.2-0.4,0.3-0.7,0.6-1.1
	c0.2-0.3,0.5-0.6,0.8-0.9c0.3-0.3,0.6-0.5,0.9-0.8c0.3-0.2,0.7-0.4,1.1-0.6c0.4-0.2,0.8-0.3,1.1-0.3s0.8-0.1,1.2-0.1
	c0.4,0,0.8,0,1.2,0.1c0.4,0.1,0.8,0.2,1.1,0.3c0.4,0.2,0.7,0.3,1.1,0.6c0.3,0.2,0.6,0.5,0.9,0.8c0.3,0.3,0.5,0.6,0.8,0.9
	c0.2,0.3,0.4,0.7,0.6,1.1c0.2,0.4,0.3,0.8,0.3,1.1C199.7,121.7,199.7,122.1,199.7,122.5z"/>
<path class="st3" d="M199.3,225.9c0,0.4,0,0.8-0.1,1.2c-0.1,0.4-0.2,0.8-0.3,1.1c-0.2,0.4-0.3,0.7-0.6,1.1c-0.2,0.3-0.5,0.6-0.8,0.9
	c-0.3,0.3-0.6,0.5-0.9,0.8c-0.3,0.2-0.7,0.4-1.1,0.6c-0.4,0.2-0.8,0.3-1.1,0.3s-0.8,0.1-1.2,0.1c-0.4,0-0.8,0-1.2-0.1
	s-0.8-0.2-1.1-0.3c-0.4-0.2-0.7-0.3-1.1-0.6c-0.3-0.2-0.6-0.5-0.9-0.8c-0.3-0.3-0.5-0.6-0.8-0.9c-0.2-0.3-0.4-0.7-0.6-1.1
	c-0.2-0.4-0.3-0.8-0.3-1.1c-0.1-0.4-0.1-0.8-0.1-1.2c0-0.4,0-0.8,0.1-1.2c0.1-0.4,0.2-0.8,0.3-1.1c0.2-0.4,0.3-0.7,0.6-1.1
	c0.2-0.3,0.5-0.6,0.8-0.9c0.3-0.3,0.6-0.5,0.9-0.8c0.3-0.2,0.7-0.4,1.1-0.6c0.4-0.2,0.8-0.3,1.1-0.3s0.8-0.1,1.2-0.1
	c0.4,0,0.8,0,1.2,0.1s0.8,0.2,1.1,0.3c0.4,0.2,0.7,0.3,1.1,0.6c0.3,0.2,0.6,0.5,0.9,0.8c0.3,0.3,0.5,0.6,0.8,0.9
	c0.2,0.3,0.4,0.7,0.6,1.1c0.2,0.4,0.3,0.8,0.3,1.1C199.2,225.1,199.3,225.5,199.3,225.9z"/>
<path class="st3" d="M302.7,226.4c0,0.4,0,0.8-0.1,1.2c-0.1,0.4-0.2,0.8-0.3,1.1c-0.2,0.4-0.3,0.7-0.6,1.1c-0.2,0.3-0.5,0.6-0.8,0.9
	c-0.3,0.3-0.6,0.5-0.9,0.8c-0.3,0.2-0.7,0.4-1.1,0.6c-0.4,0.2-0.8,0.3-1.1,0.3s-0.8,0.1-1.2,0.1c-0.4,0-0.8,0-1.2-0.1
	s-0.8-0.2-1.1-0.3c-0.4-0.2-0.7-0.3-1.1-0.6c-0.3-0.2-0.6-0.5-0.9-0.8c-0.3-0.3-0.5-0.6-0.8-0.9c-0.2-0.3-0.4-0.7-0.6-1.1
	c-0.2-0.4-0.3-0.8-0.3-1.1c-0.1-0.4-0.1-0.8-0.1-1.2s0-0.8,0.1-1.2c0.1-0.4,0.2-0.8,0.3-1.1c0.2-0.4,0.3-0.7,0.6-1.1
	s0.5-0.6,0.8-0.9c0.3-0.3,0.6-0.5,0.9-0.8c0.3-0.2,0.7-0.4,1.1-0.6c0.4-0.2,0.8-0.3,1.1-0.3s0.8-0.1,1.2-0.1c0.4,0,0.8,0,1.2,0.1
	s0.8,0.2,1.1,0.3c0.4,0.2,0.7,0.3,1.1,0.6c0.3,0.2,0.6,0.5,0.9,0.8c0.3,0.3,0.5,0.6,0.8,0.9s0.4,0.7,0.6,1.1
	c0.2,0.4,0.3,0.8,0.3,1.1C302.7,225.6,302.7,226,302.7,226.4z"/>
<path class="st3" d="M303.2,123c0,0.4,0,0.8-0.1,1.2c-0.1,0.4-0.2,0.8-0.3,1.1c-0.2,0.4-0.3,0.7-0.6,1.1c-0.2,0.3-0.5,0.6-0.8,0.9
	c-0.3,0.3-0.6,0.5-0.9,0.8c-0.3,0.2-0.7,0.4-1.1,0.6c-0.4,0.2-0.8,0.3-1.1,0.3c-0.4,0.1-0.8,0.1-1.2,0.1c-0.4,0-0.8,0-1.2-0.1
	s-0.8-0.2-1.1-0.3c-0.4-0.2-0.7-0.3-1.1-0.6c-0.3-0.2-0.6-0.5-0.9-0.8c-0.3-0.3-0.5-0.6-0.8-0.9c-0.2-0.3-0.4-0.7-0.6-1.1
	c-0.2-0.4-0.3-0.8-0.3-1.1c-0.1-0.4-0.1-0.8-0.1-1.2c0-0.4,0-0.8,0.1-1.2c0.1-0.4,0.2-0.8,0.3-1.1c0.2-0.4,0.3-0.7,0.6-1.1
	c0.2-0.3,0.5-0.6,0.8-0.9c0.3-0.3,0.6-0.5,0.9-0.8c0.3-0.2,0.7-0.4,1.1-0.6c0.4-0.2,0.8-0.3,1.1-0.3s0.8-0.1,1.2-0.1
	c0.4,0,0.8,0,1.2,0.1c0.4,0.1,0.8,0.2,1.1,0.3c0.4,0.2,0.7,0.3,1.1,0.6c0.3,0.2,0.6,0.5,0.9,0.8c0.3,0.3,0.5,0.6,0.8,0.9
	c0.2,0.3,0.4,0.7,0.6,1.1c0.2,0.4,0.3,0.8,0.3,1.1C303.1,122.2,303.2,122.6,303.2,123z"/>
<path class="st2" d="M223,120.6c-2.5,0.9-5.4-0.4-6.3-2.9c-0.9-2.5,0.4-5.4,2.9-6.3"/>
<path class="st2" d="M191.4,152.1c-1.2,2.5-4,3.6-6.5,2.4c-2.5-1.2-3.5-4-2.4-6.5"/>
<path class="st2" d="M191.3,196.6c0.9,2.5-0.4,5.4-2.9,6.3c-2.5,0.9-5.4-0.4-6.3-2.9"/>
<path class="st2" d="M222.7,228.2c2.5,1.2,3.6,4,2.4,6.5s-4,3.6-6.5,2.4"/>
<path class="st2" d="M267.3,228.3c2.5-0.9,5.4,0.4,6.3,2.9c0.9,2.5-0.4,5.4-2.9,6.3"/>
<path class="st2" d="M298.8,196.8c1.2-2.5,4-3.6,6.5-2.4c2.5,1.2,3.6,4,2.4,6.5"/>
<path class="st2" d="M298.9,152.3c-0.9-2.5,0.4-5.4,2.9-6.3c2.5-0.9,5.4,0.4,6.3,2.9"/>
<path class="st2" d="M267.5,120.7c-2.5-1.2-3.5-4-2.4-6.5s4-3.6,6.5-2.4"/>
<path class="st2" d="M245.4,107.4c-3.4,0-6.1-2.7-6.1-6.1c0-3.4,2.7-6.1,6.1-6.1"/>
<path class="st2" d="M197.9,126.8c-2.4,2.4-6.2,2.4-8.6,0c-2.4-2.4-2.4-6.3,0-8.6"/>
<path class="st2" d="M178,174.1c0,3.4-2.7,6.1-6.1,6.1c-3.4,0-6.1-2.7-6.1-6.1"/>
<path class="st2" d="M197.5,221.6c2.4,2.4,2.4,6.3,0,8.6c-2.4,2.4-6.3,2.4-8.7,0"/>
<path class="st2" d="M244.8,241.5c3.4,0,6.1,2.7,6.1,6.1c0,3.4-2.7,6.1-6.1,6.1"/>
<path class="st2" d="M292.3,222.1c2.4-2.4,6.3-2.4,8.7,0c2.4,2.4,2.4,6.3,0,8.6"/>
<path class="st2" d="M292.7,127.3c-2.4-2.4-2.4-6.3,0-8.6c2.4-2.4,6.3-2.4,8.6,0"/>
<path class="st2" d="M312.2,174.8c0-3.4,2.7-6.1,6.1-6.1c3.4,0,6.1,2.7,6.1,6.1"/>
<path class="st6" d="M238.9,158.8c-1.7,0.8-3.7-0.1-4.5-1.8c-0.8-1.7,0.1-3.7,1.8-4.5"/>
<path class="st6" d="M229.7,167.7c-0.7,1.8-2.7,2.6-4.4,1.9c-1.7-0.7-2.6-2.7-1.9-4.4"/>
<path class="st6" d="M229.4,180.6c0.8,1.7-0.1,3.7-1.8,4.5c-1.7,0.8-3.7-0.1-4.5-1.8"/>
<path class="st6" d="M238.4,189.9c1.8,0.7,2.6,2.7,1.9,4.4c-0.7,1.8-2.7,2.6-4.4,1.9"/>
<path class="st6" d="M251.3,190.1c1.7-0.8,3.7,0.1,4.5,1.8c0.8,1.7-0.1,3.7-1.8,4.5"/>
<path class="st6" d="M260.6,181.2c0.7-1.8,2.7-2.6,4.4-1.9c1.8,0.7,2.6,2.7,1.9,4.4"/>
<path class="st6" d="M260.8,168.3c-0.8-1.7,0.1-3.7,1.8-4.5c1.7-0.8,3.7,0.1,4.5,1.8"/>
<path class="st6" d="M251.8,159c-1.8-0.7-2.6-2.7-1.9-4.4c0.7-1.8,2.7-2.6,4.4-1.9"/>
<g>
	<defs>
		<rect id="SVGID_1_" x="225.3" y="77.9" width="40" height="40.7"/>
	</defs>
	<clipPath id="SVGID_00000148634152174019165100000005272206117685029564_">
		<use xlink:href="#SVGID_1_"  style="overflow:visible;"/>
	</clipPath>
	<g style="clip-path:url(#SVGID_00000148634152174019165100000005272206117685029564_);">
		<path class="st8" d="M252.9,118.2c-2.6,0-5.3-1.3-7.5-3.6c-2.2,2.2-4.9,3.6-7.5,3.6c-6.7,0-11.4-5-11.4-12.3
			c0-4.9,3.7-8.5,7.6-12.3c3.2-3.2,7-6.7,9.3-11.6l1.9-4.2l2.1,4.1c2.4,4.8,6,8.3,9.3,11.4c3.9,3.9,7.7,7.6,7.7,12.5
			C264.3,113.2,259.6,118.2,252.9,118.2z M245.4,107.1l1.9,2.9c1.2,1.9,3.3,3.9,5.6,3.9c4.3,0,6.9-3,6.9-7.9c0-3.1-2.8-5.9-6.4-9.3
			c-2.6-2.6-5.6-5.5-8-9.1c-2.5,3.8-5.5,6.7-8.3,9.4c-3.6,3.4-6.3,6.1-6.3,9.1c0,4.9,2.7,7.9,6.9,7.9c2.3,0,4.5-2,5.6-3.9
			L245.4,107.1z"/>
	</g>
</g>
<path class="st8" d="M243.4,154.4c-2.2-4.9-5.9-8.5-9.2-11.8c-3.9-3.9-7.7-7.7-7.7-12.7c0-7.2,4.7-12.3,11.4-12.3
	c2.6,0,5.3,1.3,7.5,3.6c2.2-2.2,4.9-3.6,7.5-3.6c6.7,0,11.4,5,11.4,12.3c0,5-3.6,8.6-7.8,12.9c-3.2,3.2-6.7,6.9-9.2,11.6l-2.1,4.1
	L243.4,154.4z M247.3,126l-1.9,2.9l-1.8-2.9c-1.2-1.9-3.3-3.9-5.6-3.9c-4.3,0-6.9,3-6.9,7.9c0,3.1,2.9,5.9,6.4,9.5
	c2.7,2.7,5.7,5.7,8.1,9.5c2.4-3.6,5.3-6.6,8-9.3c3.6-3.7,6.5-6.6,6.5-9.8c0-4.9-2.7-7.9-6.9-7.9C250.6,122.1,248.4,124.1,247.3,126z
	"/>
<path class="st8" d="M245.1,182.6c-4.5,0-8.1-3.6-8.1-8.1c0-4.5,3.6-8.1,8.1-8.1c4.5,0,8.1,3.6,8.1,8.1
	C253.2,178.9,249.6,182.6,245.1,182.6z M245.1,169c-3,0-5.5,2.5-5.5,5.5c0,3,2.5,5.5,5.5,5.5c3,0,5.5-2.5,5.5-5.5
	C250.6,171.4,248.1,169,245.1,169z"/>
<path class="st8" d="M245.4,109.1c-4.2,0-7.7-3.5-7.7-7.7c0-4.2,3.5-7.7,7.7-7.7c4.2,0,7.7,3.5,7.7,7.7
	C253.1,105.6,249.7,109.1,245.4,109.1z M245.4,96.9c-2.5,0-4.5,2-4.5,4.5c0,2.5,2,4.5,4.5,4.5c2.5,0,4.5-2,4.5-4.5
	C249.9,98.9,247.9,96.9,245.4,96.9z"/>
<path class="st8" d="M221.2,122.6c-3.6,0-6.6-2.9-6.6-6.6s2.9-6.6,6.6-6.6s6.6,2.9,6.6,6.6C227.8,119.6,224.8,122.6,221.2,122.6z
	 M221.2,112.8c-1.8,0-3.2,1.5-3.2,3.2s1.5,3.2,3.2,3.2s3.2-1.5,3.2-3.2C224.5,114.2,223,112.8,221.2,112.8z"/>
<path class="st8" d="M247.7,162.6c0,0.3-0.1,0.7-0.2,1c-0.1,0.3-0.3,0.6-0.6,0.8c-0.2,0.2-0.5,0.4-0.8,0.6c-0.3,0.1-0.6,0.2-1,0.2
	c-0.3,0-0.7-0.1-1-0.2c-0.3-0.1-0.6-0.3-0.8-0.6c-0.2-0.2-0.4-0.5-0.6-0.8s-0.2-0.6-0.2-1s0.1-0.7,0.2-1s0.3-0.6,0.6-0.8
	c0.2-0.2,0.5-0.4,0.8-0.6c0.3-0.1,0.6-0.2,1-0.2c0.3,0,0.7,0.1,1,0.2c0.3,0.1,0.6,0.3,0.8,0.6c0.2,0.2,0.4,0.5,0.6,0.8
	C247.6,161.9,247.7,162.2,247.7,162.6z"/>
<path class="st8" d="M239.2,166c0,0.3-0.1,0.7-0.2,1c-0.1,0.3-0.3,0.6-0.6,0.8c-0.2,0.2-0.5,0.4-0.8,0.6c-0.3,0.1-0.6,0.2-1,0.2
	s-0.7-0.1-1-0.2s-0.6-0.3-0.8-0.6c-0.2-0.2-0.4-0.5-0.6-0.8c-0.1-0.3-0.2-0.6-0.2-1c0-0.3,0.1-0.7,0.2-1c0.1-0.3,0.3-0.6,0.6-0.8
	c0.2-0.2,0.5-0.4,0.8-0.6c0.3-0.1,0.6-0.2,1-0.2s0.7,0.1,1,0.2c0.3,0.1,0.6,0.3,0.8,0.6c0.2,0.2,0.4,0.5,0.6,0.8
	C239.2,165.4,239.2,165.7,239.2,166z"/>
<path class="st8" d="M235.8,174.4c0,0.3-0.1,0.7-0.2,1c-0.1,0.3-0.3,0.6-0.6,0.8s-0.5,0.4-0.8,0.6c-0.3,0.1-0.6,0.2-1,0.2
	c-0.3,0-0.7-0.1-1-0.2c-0.3-0.1-0.6-0.3-0.8-0.6c-0.2-0.2-0.4-0.5-0.6-0.8c-0.1-0.3-0.2-0.6-0.2-1c0-0.3,0.1-0.7,0.2-1
	c0.1-0.3,0.3-0.6,0.6-0.8c0.2-0.2,0.5-0.4,0.8-0.6c0.3-0.1,0.6-0.2,1-0.2c0.3,0,0.7,0.1,1,0.2c0.3,0.1,0.6,0.3,0.8,0.6
	c0.2,0.2,0.4,0.5,0.6,0.8C235.7,173.8,235.8,174.1,235.8,174.4z"/>
<path class="st8" d="M239.2,182.9c0,0.3-0.1,0.7-0.2,1c-0.1,0.3-0.3,0.6-0.6,0.8c-0.2,0.2-0.5,0.4-0.8,0.6c-0.3,0.1-0.6,0.2-1,0.2
	s-0.7-0.1-1-0.2s-0.6-0.3-0.8-0.6c-0.2-0.2-0.4-0.5-0.6-0.8c-0.1-0.3-0.2-0.6-0.2-1c0-0.3,0.1-0.7,0.2-1c0.1-0.3,0.3-0.6,0.6-0.8
	c0.2-0.2,0.5-0.4,0.8-0.6c0.3-0.1,0.6-0.2,1-0.2s0.7,0.1,1,0.2c0.3,0.1,0.6,0.3,0.8,0.6c0.2,0.2,0.4,0.5,0.6,0.8
	C239.2,182.2,239.2,182.5,239.2,182.9z"/>
<path class="st8" d="M247.7,186.3c0,0.3-0.1,0.7-0.2,1c-0.1,0.3-0.3,0.6-0.6,0.8s-0.5,0.4-0.8,0.6c-0.3,0.1-0.6,0.2-1,0.2
	c-0.3,0-0.7-0.1-1-0.2c-0.3-0.1-0.6-0.3-0.8-0.6c-0.2-0.2-0.4-0.5-0.6-0.8s-0.2-0.6-0.2-1c0-0.3,0.1-0.7,0.2-1s0.3-0.6,0.6-0.8
	c0.2-0.2,0.5-0.4,0.8-0.6s0.6-0.2,1-0.2c0.3,0,0.7,0.1,1,0.2s0.6,0.3,0.8,0.6c0.2,0.2,0.4,0.5,0.6,0.8
	C247.6,185.7,247.7,186,247.7,186.3z"/>
<path class="st8" d="M256.1,182.9c0,0.3-0.1,0.7-0.2,1c-0.1,0.3-0.3,0.6-0.6,0.8c-0.2,0.2-0.5,0.4-0.8,0.6s-0.6,0.2-1,0.2
	c-0.3,0-0.7-0.1-1-0.2s-0.6-0.3-0.8-0.6c-0.2-0.2-0.4-0.5-0.6-0.8c-0.1-0.3-0.2-0.6-0.2-1c0-0.3,0.1-0.7,0.2-1
	c0.1-0.3,0.3-0.6,0.6-0.8s0.5-0.4,0.8-0.6c0.3-0.1,0.6-0.2,1-0.2c0.3,0,0.7,0.1,1,0.2c0.3,0.1,0.6,0.3,0.8,0.6
	c0.2,0.2,0.4,0.5,0.6,0.8C256,182.2,256.1,182.5,256.1,182.9z"/>
<path class="st8" d="M259.6,174.4c0,0.3-0.1,0.7-0.2,1c-0.1,0.3-0.3,0.6-0.6,0.8c-0.2,0.2-0.5,0.4-0.8,0.6c-0.3,0.1-0.6,0.2-1,0.2
	c-0.3,0-0.7-0.1-1-0.2c-0.3-0.1-0.6-0.3-0.8-0.6c-0.2-0.2-0.4-0.5-0.6-0.8s-0.2-0.6-0.2-1c0-0.3,0.1-0.7,0.2-1s0.3-0.6,0.6-0.8
	c0.2-0.2,0.5-0.4,0.8-0.6c0.3-0.1,0.6-0.2,1-0.2c0.3,0,0.7,0.1,1,0.2c0.3,0.1,0.6,0.3,0.8,0.6c0.2,0.2,0.4,0.5,0.6,0.8
	C259.5,173.8,259.6,174.1,259.6,174.4z"/>
<path class="st8" d="M256.1,166c0,0.3-0.1,0.7-0.2,1c-0.1,0.3-0.3,0.6-0.6,0.8c-0.2,0.2-0.5,0.4-0.8,0.6s-0.6,0.2-1,0.2
	c-0.3,0-0.7-0.1-1-0.2s-0.6-0.3-0.8-0.6c-0.2-0.2-0.4-0.5-0.6-0.8c-0.1-0.3-0.2-0.6-0.2-1c0-0.3,0.1-0.7,0.2-1
	c0.1-0.3,0.3-0.6,0.6-0.8s0.5-0.4,0.8-0.6c0.3-0.1,0.6-0.2,1-0.2c0.3,0,0.7,0.1,1,0.2c0.3,0.1,0.6,0.3,0.8,0.6
	c0.2,0.2,0.4,0.5,0.6,0.8C256,165.4,256.1,165.7,256.1,166z"/>
<path class="st8" d="M245.4,142.3c-3.6,0-6.6-2.9-6.6-6.6c0-3.6,2.9-6.6,6.6-6.6c3.6,0,6.6,2.9,6.6,6.6
	C252,139.4,249.1,142.3,245.4,142.3z M245.4,132.4c-1.8,0-3.2,1.5-3.2,3.2c0,1.8,1.5,3.2,3.2,3.2c1.8,0,3.2-1.5,3.2-3.2
	C248.7,133.9,247.3,132.4,245.4,132.4z"/>
<path class="st8" d="M217.9,153.4c-1.7,0-3.4-0.6-4.6-1.9c-2.5-2.5-2.5-6.7,0-9.3c2.5-2.6,6.7-2.6,9.3,0c2.5,2.5,2.5,6.7,0,9.3
	C221.3,152.8,219.6,153.4,217.9,153.4z M217.9,143.6c-0.8,0-1.7,0.3-2.3,0.9c-0.6,0.6-0.9,1.5-0.9,2.3s0.3,1.7,0.9,2.3
	c1.3,1.2,3.3,1.2,4.6,0c1.2-1.2,1.2-3.3,0-4.6C219.6,143.9,218.8,143.6,217.9,143.6z"/>
<path class="st8" d="M206.4,180.7c-3.6,0-6.6-2.9-6.6-6.6c0-3.6,2.9-6.6,6.6-6.6c3.6,0,6.6,2.9,6.6,6.6
	C213,177.8,210.1,180.7,206.4,180.7z M206.4,170.8c-1.8,0-3.2,1.5-3.2,3.2s1.5,3.2,3.2,3.2c1.8,0,3.2-1.5,3.2-3.2
	S208.2,170.8,206.4,170.8z"/>
<path class="st8" d="M217.5,208.2c-1.7,0-3.4-0.6-4.6-1.9c-2.5-2.5-2.5-6.7,0-9.3c2.5-2.6,6.7-2.6,9.3,0c2.5,2.5,2.5,6.7,0,9.3
	C220.9,207.5,219.2,208.2,217.5,208.2z M217.5,198.3c-0.9,0-1.7,0.3-2.3,0.9c-0.6,0.6-0.9,1.5-0.9,2.3s0.3,1.7,0.9,2.3
	c1.2,1.2,3.4,1.2,4.6,0s1.2-3.3,0-4.6C219.2,198.7,218.4,198.3,217.5,198.3z"/>
<path class="st8" d="M244.8,219.8c-3.6,0-6.6-2.9-6.6-6.6c0-3.6,2.9-6.6,6.6-6.6c3.6,0,6.6,2.9,6.6,6.6
	C251.4,216.8,248.4,219.8,244.8,219.8z M244.8,209.9c-1.8,0-3.2,1.5-3.2,3.2c0,1.8,1.5,3.2,3.2,3.2s3.2-1.5,3.2-3.2
	C248,211.3,246.6,209.9,244.8,209.9z"/>
<path class="st8" d="M272.3,208.6c-1.8,0-3.4-0.7-4.6-1.9c-2.5-2.5-2.5-6.7,0-9.3c2.5-2.6,6.7-2.6,9.3,0c2.5,2.5,2.5,6.7,0,9.3
	C275.7,207.9,274,208.6,272.3,208.6z M272.3,198.8c-0.8,0-1.7,0.3-2.3,0.9c-1.2,1.2-1.2,3.3,0,4.6c1.2,1.2,3.4,1.2,4.6,0
	s1.2-3.3,0-4.6C273.9,199.1,273.1,198.8,272.3,198.8z"/>
<path class="st8" d="M283.8,181.3c-3.6,0-6.6-2.9-6.6-6.6c0-3.6,2.9-6.6,6.6-6.6c3.6,0,6.6,2.9,6.6,6.6
	C290.4,178.4,287.4,181.3,283.8,181.3z M283.8,171.5c-1.8,0-3.2,1.5-3.2,3.2c0,1.8,1.5,3.2,3.2,3.2c1.8,0,3.2-1.5,3.2-3.2
	C287.1,173,285.6,171.5,283.8,171.5z"/>
<path class="st8" d="M272.8,153.9c-1.8,0-3.4-0.7-4.6-1.9s-1.9-2.9-1.9-4.6c0-1.8,0.7-3.4,1.9-4.6c2.5-2.5,6.8-2.5,9.3,0
	c1.2,1.2,1.9,2.9,1.9,4.6c0,1.8-0.7,3.4-1.9,4.6S274.4,153.9,272.8,153.9z M272.8,144c-0.8,0-1.7,0.3-2.3,0.9
	c-0.6,0.6-0.9,1.5-0.9,2.3c0,0.8,0.3,1.7,0.9,2.3c1.2,1.2,3.4,1.2,4.6,0c0.6-0.6,0.9-1.5,0.9-2.3c0-0.8-0.3-1.7-0.9-2.3
	C274.4,144.4,273.6,144,272.8,144z"/>
<path class="st8" d="M233.8,162.6l-4.3-1.4c-5.1-1.7-10.1-1.6-14.6-1.5c-5.6,0.1-10.8,0.2-14.3-3.4c-5.1-5.1-5.3-12-0.6-16.8
	c1.9-1.9,4.7-2.9,7.8-2.8c-0.1-3.2,0.9-5.9,2.8-7.8c4.7-4.7,11.7-4.5,16.8,0.6c3.5,3.5,3.4,8.6,3.2,14.1c-0.1,4.6-0.2,9.7,1.7,14.7
	L233.8,162.6z M217.3,155.1c3,0,6.2,0.2,9.6,0.8c-0.9-4.4-0.8-8.6-0.8-12.4c0.1-4.9,0.2-8.7-2-10.9c-3.4-3.4-7.4-3.6-10.5-0.6
	c-1.6,1.6-1.7,4.6-1.2,6.7l0.7,3.3l-3.3-0.7c-2.2-0.5-5.1-0.4-6.7,1.2c-3,3-2.8,7,0.6,10.5c2.2,2.2,6.2,2.2,11.1,2.1
	C215.5,155.1,216.5,155.1,217.3,155.1z"/>
<path class="st8" d="M200.6,193.1c-7.2,0-12.3-4.7-12.3-11.4c0-2.6,1.3-5.3,3.6-7.5c-2.2-2.2-3.6-4.9-3.6-7.5
	c0-6.7,5-11.4,12.3-11.4c4.9,0,8.5,3.7,12.3,7.6c3.2,3.2,6.7,7,11.6,9.3l4.2,1.9l-4.1,2.1c-4.8,2.4-8.3,6-11.4,9.3
	C209.3,189.3,205.6,193.1,200.6,193.1z M200.6,159.7c-4.9,0-7.9,2.7-7.9,6.9c0,2.3,2,4.5,3.9,5.6l2.9,1.9l-2.9,1.9
	c-1.8,1.2-3.9,3.3-3.9,5.6c0,4.3,3,6.9,7.9,6.9c3.1,0,5.9-2.8,9.3-6.4c2.6-2.6,5.5-5.6,9.1-8c-3.8-2.5-6.7-5.5-9.4-8.3
	C206.4,162.5,203.7,159.7,200.6,159.7z"/>
<path class="st8" d="M218,223.1c-2.9,0-5.7-1.2-7.9-3.4c-1.8-1.8-2.9-4.7-2.8-7.8c-3.2,0.1-5.9-0.9-7.8-2.8
	c-4.7-4.7-4.5-11.7,0.6-16.8c3.5-3.5,8.6-3.4,14.1-3.2c4.6,0.1,9.7,0.2,14.7-1.7l4.2-1.5l-1.4,4.3c-1.7,5.1-1.6,10.1-1.5,14.6
	c0.1,5.6,0.2,10.8-3.4,14.3C224.3,221.7,221.3,223.1,218,223.1L218,223.1z M212.7,206.5l-0.7,3.3c-0.5,2.2-0.4,5.1,1.2,6.7
	c1.4,1.4,3,2.2,4.9,2.1c1.9,0,3.9-0.9,5.6-2.7c2.2-2.2,2.2-6.2,2.1-11.1c-0.1-3.7-0.1-7.8,0.8-12.1c-4.4,0.9-8.7,0.8-12.4,0.8
	c-4.9-0.1-8.7-0.2-10.9,2c-3.4,3.4-3.6,7.4-0.6,10.5c1.6,1.6,4.6,1.7,6.7,1.2L212.7,206.5z"/>
<path class="st8" d="M252.4,231.2c-2.6,0-5.3-1.3-7.5-3.6c-2.2,2.2-4.9,3.6-7.5,3.6c-6.7,0-11.4-5-11.4-12.3c0-4.9,3.7-8.5,7.6-12.3
	c3.2-3.2,7-6.7,9.3-11.6l1.9-4.2l2.1,4.1c2.4,4.8,6,8.3,9.3,11.4c3.9,3.9,7.7,7.6,7.7,12.5C263.7,226.2,259.1,231.2,252.4,231.2z
	 M244.8,220l1.8,2.9c1.2,1.9,3.3,3.9,5.6,3.9c4.3,0,6.9-3,6.9-7.8c0-3.1-2.8-5.9-6.4-9.3c-2.6-2.6-5.6-5.5-8-9.1
	c-2.5,3.8-5.5,6.7-8.3,9.4c-3.6,3.4-6.3,6.1-6.3,9.1c0,4.9,2.7,7.8,6.9,7.8c2.3,0,4.5-2,5.6-3.9L244.8,220z"/>
<path class="st8" d="M271.8,223.5c-0.1,0-0.1,0-0.2,0c-3.1,0-6.1-1.4-8.7-4c-3.5-3.5-3.4-8.6-3.2-14.1c0.1-4.6,0.2-9.7-1.7-14.7
	l-1.5-4.2l4.3,1.4c5.1,1.7,10.1,1.6,14.6,1.5c5.6-0.1,10.8-0.2,14.3,3.4c5.1,5.1,5.3,12,0.6,16.8c-1.9,1.9-4.7,2.9-7.8,2.8
	c0.1,3.2-0.9,5.9-2.8,7.8C277.5,222.3,274.7,223.5,271.8,223.5z M263.3,193c0.9,4.4,0.8,8.6,0.8,12.4c-0.1,4.9-0.2,8.7,2,10.9
	c1.8,1.8,3.7,2.7,5.6,2.7h0.1c1.7,0,3.4-0.7,4.8-2.1c1.6-1.6,1.7-4.6,1.2-6.7l-0.7-3.3l3.3,0.7c2.2,0.5,5.1,0.4,6.7-1.2
	c1.4-1.4,2.2-3.1,2.1-4.9c0-1.9-0.9-3.9-2.7-5.6c-2.2-2.2-6.2-2.2-11.1-2.1C271.8,193.8,267.7,193.8,263.3,193z"/>
<path class="st8" d="M289.6,193.7c-4.9,0-8.5-3.7-12.3-7.6c-3.2-3.2-6.7-7-11.6-9.3l-4.2-1.9l4.1-2.1c4.8-2.4,8.3-6,11.4-9.3
	c3.9-3.9,7.6-7.7,12.5-7.7c7.2,0,12.3,4.7,12.3,11.4c0,2.6-1.3,5.3-3.5,7.5c2.2,2.2,3.5,4.9,3.5,7.5
	C301.9,189,296.8,193.7,289.6,193.7z M271.1,174.7c3.8,2.5,6.7,5.5,9.4,8.3c3.4,3.6,6.1,6.3,9.1,6.3c4.9,0,7.8-2.7,7.8-6.9
	c0-2.3-2-4.5-3.9-5.6l-2.9-1.8l2.9-1.9c1.9-1.2,3.9-3.3,3.9-5.6c0-4.3-3-6.9-7.8-6.9c-3.1,0-5.9,2.8-9.3,6.4
	C277.6,169.3,274.8,172.2,271.1,174.7z"/>
<path class="st8" d="M257,163.1l1.4-4.3c1.7-5.1,1.6-10.1,1.5-14.6c-0.1-5.6-0.2-10.8,3.4-14.3c2.6-2.6,5.6-3.9,8.7-4
	c2.9,0.1,5.8,1.2,8,3.4c1.8,1.9,2.9,4.7,2.8,7.8c3.2-0.1,5.9,0.9,7.8,2.8c4.7,4.8,4.5,11.7-0.6,16.8c-3.5,3.5-8.7,3.4-14.1,3.2
	c-4.6-0.1-9.7-0.2-14.7,1.7L257,163.1z M272.2,130.2C272.2,130.2,272.1,130.2,272.2,130.2c-2,0-3.9,0.9-5.7,2.7
	c-2.2,2.2-2.2,6.2-2.1,11.1c0.1,3.7,0.1,7.8-0.8,12.1c4.4-0.9,8.6-0.8,12.4-0.8c4.9,0.1,8.7,0.2,10.9-2c3.4-3.4,3.6-7.4,0.6-10.5
	c-1.6-1.6-4.6-1.7-6.7-1.2l-3.3,0.7l0.7-3.3c0.5-2.2,0.4-5.1-1.2-6.7C275.6,131,274,130.2,272.2,130.2z"/>
<path class="st8" d="M192.4,143.2c-3.1,0-6.2-1.3-8.9-4c-3.5-3.5-3.4-8.6-3.2-14.1c0.1-4.6,0.2-9.7-1.7-14.7L177,106l4.3,1.4
	c5.1,1.7,10.1,1.6,14.6,1.5c5.6-0.1,10.8-0.2,14.3,3.4c5.1,5.1,5.3,12,0.6,16.8c-1.9,1.8-4.7,2.9-7.8,2.8c0.1,3.2-0.9,5.9-2.8,7.8
	C197.9,142.1,195.2,143.2,192.4,143.2z M183.8,112.7c0.9,4.4,0.8,8.6,0.8,12.4c-0.1,4.9-0.2,8.7,2,10.9c3.4,3.4,7.4,3.6,10.5,0.6
	c1.6-1.6,1.7-4.6,1.2-6.7l-0.7-3.3l3.3,0.7c2.2,0.5,5.1,0.4,6.7-1.2c3-3,2.8-7-0.6-10.5c-2.2-2.2-6.2-2.2-11.1-2.1
	C192.3,113.5,188.2,113.5,183.8,112.7z"/>
<g>
	<defs>
		<rect id="SVGID_00000152945175789855341890000005512372848305277856_" x="148.6" y="154.7" width="40.7" height="38.7"/>
	</defs>
	<clipPath id="SVGID_00000033332874788737565870000009779864253957102263_">
		<use xlink:href="#SVGID_00000152945175789855341890000005512372848305277856_"  style="overflow:visible;"/>
	</clipPath>
	<g style="clip-path:url(#SVGID_00000033332874788737565870000009779864253957102263_);">
		<path class="st8" d="M176.6,193.1c-4.9,0-8.5-3.7-12.3-7.6c-3.2-3.2-6.7-7-11.6-9.3l-4.2-1.9l4.1-2.1c4.8-2.4,8.3-6,11.4-9.3
			c3.9-3.9,7.6-7.7,12.5-7.7c7.2,0,12.3,4.7,12.3,11.4c0,2.6-1.3,5.3-3.6,7.5c2.2,2.2,3.6,4.9,3.6,7.5
			C188.9,188.4,183.8,193.1,176.6,193.1z M158.1,174.1c3.8,2.5,6.7,5.5,9.4,8.3c3.4,3.6,6.1,6.3,9.1,6.3c4.9,0,7.9-2.7,7.9-6.9
			c0-2.3-2-4.5-3.9-5.6l-2.9-1.9l2.9-1.9c1.9-1.2,3.9-3.3,3.9-5.6c0-4.3-3-6.9-7.9-6.9c-3.1,0-5.9,2.8-9.3,6.4
			C164.7,168.7,161.8,171.7,158.1,174.1z"/>
	</g>
</g>
<path class="st8" d="M193.6,130.2c-2.1,0-4-0.8-5.5-2.2c-3-3-3-7.9,0-11c3-3,8-3,11,0c1.5,1.5,2.2,3.4,2.2,5.5s-0.8,4-2.2,5.5
	C197.6,129.4,195.7,130.2,193.6,130.2z M193.6,118c-1.2,0-2.2,0.5-3.2,1.3c-1.7,1.7-1.7,4.6,0,6.3c1.7,1.7,4.6,1.7,6.2,0
	c1.7-1.7,1.7-4.6,0-6.3C195.9,118.5,194.8,118,193.6,118z"/>
<path class="st8" d="M171.9,181.9c-4.2,0-7.7-3.5-7.7-7.7s3.5-7.7,7.7-7.7c4.2,0,7.7,3.5,7.7,7.7
	C179.7,178.4,176.2,181.9,171.9,181.9z M171.9,169.7c-2.5,0-4.5,2-4.5,4.5c0,2.5,2,4.5,4.5,4.5c2.5,0,4.5-2,4.5-4.5
	C176.4,171.7,174.4,169.7,171.9,169.7z"/>
<path class="st8" d="M193.2,233.7c-2.1,0-4-0.8-5.5-2.2c-3-3-3-7.9,0-11c2.9-2.9,8-2.9,11,0c1.5,1.5,2.2,3.4,2.2,5.5
	c0,2.1-0.8,4-2.2,5.5C197.2,232.9,195.2,233.7,193.2,233.7z M190,222.8c-1.7,1.7-1.7,4.6,0,6.3s4.6,1.7,6.2,0s1.7-4.6,0-6.3
	C194.5,221.1,191.8,221.1,190,222.8z"/>
<path class="st8" d="M176.7,242.5l1.4-4.3c1.7-5.1,1.6-10.1,1.5-14.6c-0.1-5.6-0.2-10.8,3.4-14.3c5.1-5.1,12-5.3,16.8-0.6
	c1.9,1.8,2.9,4.7,2.8,7.8c3.2-0.1,5.9,0.9,7.8,2.8c2.2,2.2,3.5,5.1,3.4,8c0,3.1-1.4,6.1-4,8.7c-3.5,3.5-8.6,3.4-14.1,3.2
	c-4.6-0.1-9.7-0.2-14.7,1.7L176.7,242.5z M192,209.7c-1.9,0-3.9,0.9-5.7,2.7c-2.2,2.2-2.2,6.2-2.1,11.1c0.1,3.7,0.1,7.8-0.8,12.1
	c4.4-0.9,8.6-0.8,12.4-0.8c4.9,0.1,8.7,0.2,10.9-2c1.8-1.8,2.7-3.7,2.7-5.6c0-1.8-0.7-3.5-2.1-4.9c-1.6-1.6-4.6-1.7-6.7-1.2
	l-3.3,0.7l0.7-3.3c0.5-2.2,0.4-5.1-1.2-6.7C195.3,210.4,193.6,209.7,192,209.7z"/>
<path class="st8" d="M244.8,255.3c-4.2,0-7.7-3.5-7.7-7.7c0-4.2,3.5-7.7,7.7-7.7c4.2,0,7.7,3.5,7.7,7.7
	C252.5,251.9,249.1,255.3,244.8,255.3z M244.8,243.2c-2.5,0-4.5,2-4.5,4.5s2,4.5,4.5,4.5c2.5,0,4.5-2,4.5-4.5
	S247.2,243.2,244.8,243.2z"/>
<g>
	<defs>
		<rect id="SVGID_00000148625459362627444520000004215064482549269435_" x="225.3" y="229.3" width="38.7" height="41.6"/>
	</defs>
	<clipPath id="SVGID_00000140707295627385305210000017746568893477676170_">
		<use xlink:href="#SVGID_00000148625459362627444520000004215064482549269435_"  style="overflow:visible;"/>
	</clipPath>
	<g style="clip-path:url(#SVGID_00000140707295627385305210000017746568893477676170_);">
		<path class="st8" d="M245,270.9l-2.1-4.1c-2.4-4.8-6-8.3-9.3-11.4c-3.9-3.9-7.7-7.6-7.7-12.5c0-7.2,4.7-12.3,11.4-12.3
			c2.6,0,5.3,1.3,7.5,3.6c2.2-2.2,4.9-3.6,7.5-3.6c6.7,0,11.4,5,11.4,12.3c0,4.9-3.7,8.5-7.6,12.3c-3.2,3.2-7,6.7-9.3,11.6
			L245,270.9z M237.3,235.1c-4.3,0-6.9,3-6.9,7.8c0,3.1,2.8,5.9,6.4,9.3c2.6,2.6,5.6,5.5,8,9.1c2.5-3.8,5.5-6.7,8.3-9.4
			c3.6-3.4,6.3-6.1,6.3-9.1c0-4.9-2.7-7.8-6.9-7.8c-2.3,0-4.5,2-5.6,3.9l-1.9,2.9l-1.8-2.9C241.8,237.1,239.6,235.1,237.3,235.1z"/>
	</g>
</g>
<path class="st8" d="M313.2,242.8l-4.3-1.4c-5.1-1.7-10.1-1.6-14.6-1.5c-5.6,0.1-10.8,0.2-14.3-3.4c-5.1-5.1-5.3-12-0.6-16.8
	c1.9-1.8,4.6-2.9,7.8-2.8c-0.1-3.2,0.9-5.9,2.8-7.8c2.2-2.2,5-3.4,8-3.4c3.1,0,6.1,1.4,8.7,4c3.5,3.5,3.4,8.6,3.2,14.1
	c-0.1,4.6-0.2,9.7,1.6,14.7L313.2,242.8z M296.8,235.4c3,0,6.2,0.2,9.6,0.8c-0.9-4.4-0.8-8.6-0.8-12.4c0.1-4.9,0.2-8.7-2-10.9
	c-1.8-1.8-3.7-2.7-5.6-2.7c-1.8-0.1-3.5,0.7-4.9,2.1c-1.6,1.6-1.7,4.6-1.2,6.7l0.7,3.3l-3.3-0.7c-2.2-0.5-5.1-0.4-6.7,1.2
	c-3,3-2.8,7,0.6,10.5c2.2,2.2,6.2,2.2,11.1,2.1C295.1,235.4,295.9,235.4,296.8,235.4z"/>
<path class="st8" d="M296.6,234.2c-2.1,0-4-0.8-5.5-2.2c-1.5-1.5-2.2-3.4-2.2-5.5s0.8-4,2.2-5.5c2.9-2.9,8-2.9,11,0
	c1.5,1.5,2.2,3.4,2.2,5.5s-0.8,4-2.2,5.5C300.6,233.3,298.7,234.2,296.6,234.2z M296.6,222c-1.2,0-2.2,0.5-3.2,1.3
	c-0.8,0.8-1.3,1.9-1.3,3.2c0,1.2,0.5,2.3,1.3,3.2c1.7,1.7,4.6,1.7,6.2,0c0.8-0.9,1.3-1.9,1.3-3.2c0-1.2-0.5-2.3-1.3-3.2
	C298.9,222.4,297.8,222,296.6,222z"/>
<g>
	<defs>
		<rect id="SVGID_00000029029510346841067460000010618888803666799533_" x="300" y="154.7" width="41.6" height="40"/>
	</defs>
	<clipPath id="SVGID_00000065772202643936218140000002036888268032891037_">
		<use xlink:href="#SVGID_00000029029510346841067460000010618888803666799533_"  style="overflow:visible;"/>
	</clipPath>
	<g style="clip-path:url(#SVGID_00000065772202643936218140000002036888268032891037_);">
		<path class="st8" d="M313.6,193.7c-7.2,0-12.3-4.7-12.3-11.4c0-2.6,1.3-5.3,3.6-7.5c-2.2-2.2-3.6-4.9-3.6-7.5
			c0-6.7,5-11.4,12.3-11.4c4.9,0,8.5,3.7,12.3,7.6c3.2,3.2,6.7,7,11.6,9.3l4.2,1.9l-4.1,2.1c-4.8,2.4-8.3,6-11.4,9.3
			C322.2,189.9,318.6,193.7,313.6,193.7z M313.6,160.2c-4.9,0-7.8,2.7-7.8,6.9c0,2.3,2,4.5,3.9,5.6l2.9,1.9l-2.9,1.9
			c-1.8,1.2-3.9,3.3-3.9,5.6c0,4.3,3,6.9,7.8,6.9c3.1,0,5.9-2.8,9.3-6.4c2.6-2.6,5.5-5.6,9.1-8c-3.8-2.5-6.7-5.5-9.4-8.3
			C319.3,163,316.6,160.2,313.6,160.2z"/>
	</g>
</g>
<path class="st8" d="M298.2,143.6c-2.9,0-5.6-1.2-7.9-3.4c-1.9-1.8-2.9-4.7-2.8-7.8c-3.2,0.1-5.9-0.9-7.8-2.8
	c-4.7-4.8-4.5-11.7,0.6-16.8c3.5-3.5,8.6-3.4,14.1-3.2c4.6,0.1,9.7,0.2,14.7-1.7l4.2-1.5l-1.4,4.3c-1.7,5.1-1.6,10.1-1.5,14.6
	c0.1,5.6,0.2,10.8-3.4,14.3C304.5,142.3,301.3,143.6,298.2,143.6z M293,127l-0.7,3.3c-0.5,2.2-0.4,5.1,1.2,6.7c3,3,7.1,2.8,10.5-0.6
	c2.2-2.2,2.2-6.2,2.1-11.1c-0.1-3.7-0.1-7.8,0.8-12.1c-4.4,0.9-8.6,0.8-12.4,0.8c-4.9-0.1-8.8-0.2-10.9,2c-3.4,3.4-3.6,7.4-0.6,10.5
	c1.6,1.6,4.6,1.7,6.7,1.2L293,127z"/>
<path class="st8" d="M297.1,130.7c-2.1,0-4-0.8-5.5-2.2c-1.5-1.5-2.2-3.4-2.2-5.5c0-2.1,0.8-4,2.2-5.5c2.9-2.9,8-2.9,11,0
	c1.5,1.5,2.2,3.4,2.2,5.5c0,2.1-0.8,4-2.2,5.5C301.1,129.9,299.2,130.7,297.1,130.7z M297.1,118.5c-1.2,0-2.2,0.5-3.2,1.3
	c-1.7,1.7-1.7,4.6,0,6.3c1.7,1.7,4.6,1.7,6.2,0c1.7-1.7,1.7-4.6,0-6.3C299.4,118.9,298.2,118.5,297.1,118.5z"/>
<path class="st8" d="M186.9,156.6c-1.7,0-3.4-0.6-4.6-1.9c-2.6-2.5-2.6-6.7,0-9.3c2.5-2.5,6.7-2.5,9.3,0s2.5,6.7,0,9.3
	C190.2,155.9,188.6,156.6,186.9,156.6z M186.9,146.7c-0.8,0-1.7,0.3-2.3,0.9c-0.6,0.6-0.9,1.5-0.9,2.3c0,0.8,0.3,1.7,0.9,2.3
	c1.3,1.2,3.3,1.2,4.6,0c1.2-1.2,1.2-3.3,0-4.6C188.6,147.1,187.8,146.7,186.9,146.7z"/>
<path class="st8" d="M186.7,204.9c-3.6,0-6.6-2.9-6.6-6.6c0-3.6,2.9-6.6,6.6-6.6c3.6,0,6.6,2.9,6.6,6.6
	C193.2,202,190.3,204.9,186.7,204.9z M186.7,195.1c-1.8,0-3.2,1.5-3.2,3.2c0,1.8,1.5,3.2,3.2,3.2c1.8,0,3.2-1.5,3.2-3.2
	C189.9,196.5,188.4,195.1,186.7,195.1z"/>
<path class="st8" d="M220.7,239.2c-1.8,0-3.4-0.7-4.6-1.9s-1.9-2.9-1.9-4.6c0-1.8,0.7-3.4,1.9-4.6c2.5-2.5,6.8-2.5,9.3,0
	c1.2,1.2,1.9,2.9,1.9,4.6c0,1.8-0.7,3.4-1.9,4.6C224.1,238.6,222.4,239.2,220.7,239.2z M220.7,229.4c-0.8,0-1.7,0.3-2.3,0.9
	c-0.6,0.6-0.9,1.5-0.9,2.3c0,0.8,0.3,1.7,0.9,2.3c1.2,1.2,3.4,1.2,4.6,0c0.6-0.6,0.9-1.5,0.9-2.3c0-0.8-0.3-1.7-0.9-2.3
	C222.4,229.7,221.6,229.4,220.7,229.4z"/>
<path class="st8" d="M269,239.4c-3.6,0-6.6-2.9-6.6-6.6s2.9-6.6,6.6-6.6c3.6,0,6.6,2.9,6.6,6.6S272.7,239.4,269,239.4z M269,229.6
	c-1.8,0-3.2,1.5-3.2,3.2s1.5,3.2,3.2,3.2c1.8,0,3.2-1.5,3.2-3.2S270.8,229.6,269,229.6z"/>
<path class="st8" d="M303.3,205.5c-1.8,0-3.4-0.7-4.6-1.9c-2.5-2.6-2.5-6.7,0-9.3c2.5-2.5,6.8-2.5,9.3,0c2.6,2.5,2.6,6.7,0,9.3
	C306.7,204.8,305.1,205.5,303.3,205.5z M303.3,195.6c-0.8,0-1.7,0.3-2.3,0.9c-1.2,1.2-1.2,3.3,0,4.6c1.2,1.2,3.4,1.2,4.6,0
	s1.2-3.3,0-4.6C305,195.9,304.2,195.6,303.3,195.6z"/>
<path class="st8" d="M303.6,157.2c-3.6,0-6.6-2.9-6.6-6.6c0-3.6,2.9-6.6,6.6-6.6c3.6,0,6.6,2.9,6.6,6.6
	C310.1,154.1,307.2,157.2,303.6,157.2z M303.6,147.3c-1.8,0-3.2,1.5-3.2,3.2c0,1.8,1.5,3.2,3.2,3.2c1.8,0,3.2-1.5,3.2-3.2
	C306.8,148.7,305.3,147.3,303.6,147.3z"/>
<path class="st8" d="M269.5,122.8c-1.7,0-3.4-0.6-4.6-1.9c-2.5-2.5-2.5-6.7,0-9.3c2.6-2.5,6.7-2.5,9.3,0s2.5,6.7,0,9.3
	C272.9,122.2,271.2,122.8,269.5,122.8z M269.5,113c-0.8,0-1.7,0.3-2.3,0.9c-1.2,1.2-1.2,3.3,0,4.6c1.3,1.2,3.3,1.2,4.6,0
	c1.2-1.2,1.2-3.3,0-4.6C271.2,113.3,270.4,113,269.5,113z"/>
<path class="st8" d="M318.3,182.6c-4.2,0-7.7-3.5-7.7-7.7c0-4.2,3.5-7.7,7.7-7.7c4.2,0,7.7,3.5,7.7,7.7
	C326,179.1,322.5,182.6,318.3,182.6z M318.3,170.4c-2.5,0-4.5,2-4.5,4.5c0,2.5,2,4.5,4.5,4.5c2.5,0,4.5-2,4.5-4.5
	C322.7,172.4,320.8,170.4,318.3,170.4z"/>
<path class="st8" d="M237.5,160.8c-2.8,0-5.1-2.2-5.1-5.1c0-2.9,2.2-5.1,5.1-5.1c2.9,0,5.1,2.2,5.1,5.1
	C242.6,158.5,240.3,160.8,237.5,160.8z M237.5,154c-0.9,0-1.8,0.8-1.8,1.8c0,0.9,0.8,1.8,1.8,1.8c0.9,0,1.8-0.8,1.8-1.8
	C239.2,154.8,238.5,154,237.5,154z"/>
<path class="st8" d="M226.5,171.7c-1.3,0-2.6-0.5-3.6-1.5c-2-2-2-5.2,0-7.2c2-2,5.2-2,7.2,0c2,2,2,5.2,0,7.2
	C229.1,171.1,227.8,171.7,226.5,171.7z M226.5,164.9c-0.5,0-0.9,0.2-1.2,0.5c-0.7,0.7-0.7,1.8,0,2.5c0.7,0.7,1.8,0.7,2.5,0
	c0.7-0.7,0.7-1.8,0-2.5C227.4,165,227,164.9,226.5,164.9z"/>
<path class="st8" d="M226.4,187.1c-2.8,0-5.1-2.2-5.1-5.1c0-2.9,2.2-5.1,5.1-5.1s5.1,2.2,5.1,5.1
	C231.5,184.9,229.2,187.1,226.4,187.1z M226.4,180.3c-0.9,0-1.8,0.8-1.8,1.8c0,0.9,0.8,1.8,1.8,1.8c0.9,0,1.8-0.8,1.8-1.8
	C228.1,181.1,227.4,180.3,226.4,180.3z"/>
<path class="st8" d="M237.2,198.1c-1.4,0-2.6-0.5-3.6-1.5c-0.9-0.9-1.5-2.2-1.5-3.6s0.5-2.6,1.5-3.6c1.9-1.9,5.2-1.9,7.2,0
	c0.9,0.9,1.5,2.2,1.5,3.6s-0.5,2.6-1.5,3.6C239.9,197.6,238.6,198.1,237.2,198.1z M237.2,191.3c-0.5,0-0.9,0.2-1.2,0.5
	c-0.3,0.3-0.5,0.8-0.5,1.2c0,0.5,0.2,0.9,0.5,1.2c0.7,0.7,1.8,0.7,2.5,0c0.3-0.3,0.5-0.8,0.5-1.2c0-0.5-0.2-0.9-0.5-1.2
	C238.2,191.5,237.7,191.3,237.2,191.3z"/>
<path class="st8" d="M252.7,198.2c-2.8,0-5.1-2.2-5.1-5.1c0-2.9,2.2-5.1,5.1-5.1c2.9,0,5.1,2.2,5.1,5.1
	C257.8,196,255.5,198.2,252.7,198.2z M252.7,191.4c-0.9,0-1.8,0.8-1.8,1.8c0,1,0.8,1.8,1.8,1.8c1,0,1.8-0.8,1.8-1.8
	C254.5,192.2,253.7,191.4,252.7,191.4z"/>
<path class="st8" d="M263.7,187.3c-1.3,0-2.6-0.5-3.6-1.5c-2-2-2-5.2,0-7.2c2-2,5.2-2,7.2,0c2,2,2,5.2,0,7.2
	C266.3,186.9,265,187.3,263.7,187.3z M263.7,180.5c-0.5,0-0.9,0.2-1.2,0.5c-0.7,0.7-0.7,1.8,0,2.5c0.7,0.7,1.8,0.7,2.5,0
	c0.7-0.7,0.7-1.8,0-2.5C264.6,180.7,264.2,180.5,263.7,180.5z"/>
<path class="st8" d="M263.8,171.9c-2.8,0-5.1-2.2-5.1-5.1c0-2.9,2.2-5.1,5.1-5.1c2.8,0,5.1,2.2,5.1,5.1
	C268.9,169.7,266.6,171.9,263.8,171.9z M263.8,165.1c-0.9,0-1.8,0.8-1.8,1.8c0,0.9,0.8,1.8,1.8,1.8c0.9,0,1.8-0.8,1.8-1.8
	C265.6,165.9,264.8,165.1,263.8,165.1z"/>
<path class="st8" d="M253,160.9c-1.3,0-2.6-0.5-3.6-1.5c-2-2-2-5.2,0-7.2c2-2,5.2-2,7.2,0c2,2,2,5.2,0,7.2
	C255.5,160.4,254.3,160.9,253,160.9z M253,154.1c-0.5,0-0.9,0.2-1.2,0.5c-0.7,0.7-0.7,1.8,0,2.5c0.7,0.7,1.8,0.7,2.5,0
	c0.7-0.7,0.7-1.8,0-2.5C253.8,154.3,253.5,154.1,253,154.1z"/>
</svg>
